<svg width="41" height="80" viewBox="0 0 41 80" fill="none" xmlns="http://www.w3.org/2000/svg">
<path d="M5.29232 56.873H0V62.1603H5.29232V56.873Z" fill="#89E1F3"/>
<path d="M5.29232 65.7329H0V71.0201H5.29232V65.7329Z" fill="#89E1F3"/>
<path d="M5.29232 74.5923H0V79.8795H5.29232V74.5923Z" fill="#89E1F3"/>
<path d="M14.161 56.873H8.86865V62.1603H14.161V56.873Z" fill="#89E1F3"/>
<path d="M14.161 65.7329H8.86865V71.0201H14.161V65.7329Z" fill="#89E1F3"/>
<path d="M14.161 74.5923H8.86865V79.8795H14.161V74.5923Z" fill="#89E1F3"/>
<path d="M23.0286 56.873H17.7363V62.1603H23.0286V56.873Z" fill="#89E1F3"/>
<path d="M23.0286 65.7329H17.7363V71.0201H23.0286V65.7329Z" fill="#89E1F3"/>
<path d="M23.0286 74.5923H17.7363V79.8795H23.0286V74.5923Z" fill="#89E1F3"/>
<path d="M32.0399 56.873H26.7476V62.1603H32.0399V56.873Z" fill="#89E1F3"/>
<path d="M32.0399 65.7329H26.7476V71.0201H32.0399V65.7329Z" fill="#89E1F3"/>
<path d="M32.0399 74.5923H26.7476V79.8795H32.0399V74.5923Z" fill="#89E1F3"/>
<path d="M40.908 56.873H35.6157V62.1603H40.908V56.873Z" fill="#89E1F3"/>
<path d="M40.908 65.7329H35.6157V71.0201H40.908V65.7329Z" fill="#89E1F3"/>
<path d="M40.908 74.5923H35.6157V79.8795H40.908V74.5923Z" fill="#89E1F3"/>
<path d="M20.4547 26.2931C27.7495 26.2931 33.614 20.4343 33.614 13.1466C33.614 5.8588 27.7495 0 20.4547 0C13.1599 0 7.29541 5.8588 7.29541 13.1466C7.29541 20.4343 13.1599 26.2931 20.4547 26.2931ZM20.4547 5.4301C24.7457 5.4301 28.3216 9.00254 28.3216 13.2895C28.3216 17.5764 24.7457 21.1488 20.4547 21.1488C16.1636 21.1488 12.5877 17.5764 12.5877 13.2895C12.5877 8.85964 16.0206 5.4301 20.4547 5.4301Z" fill="#8C9EFB"/>
<path d="M31.8968 27.0078L26.7476 32.295V32.7237V53.1581H31.8968V34.4385L37.1892 39.5828L40.7651 35.8675L33.0411 28.151L31.8968 27.0078Z" fill="#8C9EFB"/>
<path d="M7.72393 28.1508L0 35.8673L3.71892 39.5826L8.86821 34.4383C8.86821 40.5829 8.86821 46.8704 8.86821 53.1579H14.1605V32.7235V32.152L8.86821 26.8647L7.72393 28.1508Z" fill="#8C9EFB"/>
</svg>
