<svg width="41" height="80" viewBox="0 0 41 80" fill="none" xmlns="http://www.w3.org/2000/svg">
<path d="M5.29234 56.873H0V62.1603H5.29234V56.873Z" fill="#89E1F3"/>
<path d="M5.29234 65.7329H0V71.0201H5.29234V65.7329Z" fill="#89E1F3"/>
<path d="M5.29234 74.5923H0V79.8795H5.29234V74.5923Z" fill="#89E1F3"/>
<path d="M14.161 56.873H8.86865V62.1603H14.161V56.873Z" fill="#89E1F3"/>
<path d="M14.161 65.7329H8.86865V71.0201H14.161V65.7329Z" fill="#89E1F3"/>
<path d="M14.161 74.5923H8.86865V79.8795H14.161V74.5923Z" fill="#89E1F3"/>
<path d="M23.0286 56.873H17.7363V62.1603H23.0286V56.873Z" fill="#89E1F3"/>
<path d="M23.0286 65.7329H17.7363V71.0201H23.0286V65.7329Z" fill="#89E1F3"/>
<path d="M23.0286 74.5923H17.7363V79.8795H23.0286V74.5923Z" fill="#89E1F3"/>
<path d="M31.8973 56.873H26.605V62.1603H31.8973V56.873Z" fill="#89E1F3"/>
<path d="M31.8973 65.7329H26.605V71.0201H31.8973V65.7329Z" fill="#89E1F3"/>
<path d="M31.8973 74.5923H26.605V79.8795H31.8973V74.5923Z" fill="#89E1F3"/>
<path d="M40.9085 56.873H35.6162V62.1603H40.9085V56.873Z" fill="#89E1F3"/>
<path d="M40.9085 65.7329H35.6162V71.0201H40.9085V65.7329Z" fill="#89E1F3"/>
<path d="M40.9085 74.5923H35.6162V79.8795H40.9085V74.5923Z" fill="#89E1F3"/>
<path d="M20.3112 26.2931C27.606 26.2931 33.4704 20.4343 33.4704 13.1466C33.4704 5.8588 27.606 0 20.3112 0C13.0163 0 7.15186 5.8588 7.15186 13.1466C7.29489 20.4343 13.1594 26.2931 20.3112 26.2931ZM20.3112 5.4301C24.6022 5.4301 28.1781 9.00254 28.1781 13.2895C28.1781 17.5764 24.6022 21.1488 20.3112 21.1488C16.0201 21.1488 12.4442 17.5764 12.4442 13.2895C12.4442 8.85964 16.0201 5.4301 20.3112 5.4301Z" fill="#8C9EFB"/>
<path d="M5.14927 34.4385L10.4416 39.5828L14.0175 35.8675L6.29356 28.151L5.14927 27.0078L0 32.295V32.7237V53.1581H3.28982H5.14927H23.0287V47.8708H5.14927V34.4385Z" fill="#8C9EFB"/>
<path d="M35.6158 27.0078L34.4715 28.151L26.7476 35.8675L30.4665 39.5828L35.6158 34.4385C35.6158 40.5831 35.6158 46.8706 35.6158 53.1581H40.9081V32.7237V32.1521L35.6158 27.0078Z" fill="#8C9EFB"/>
</svg>
