<svg width="50" height="56" viewBox="0 0 50 56" fill="none" xmlns="http://www.w3.org/2000/svg">
<path d="M14.1605 32.2949H8.86816V37.5821H14.1605V32.2949Z" fill="#89E1F3"/>
<path d="M14.1605 41.1543H8.86816V46.4415H14.1605V41.1543Z" fill="#89E1F3"/>
<path d="M14.1605 50.0142H8.86816V55.3014H14.1605V50.0142Z" fill="#89E1F3"/>
<path d="M23.1712 32.2949H17.8789V37.5821H23.1712V32.2949Z" fill="#89E1F3"/>
<path d="M23.1712 41.1543H17.8789V46.4415H23.1712V41.1543Z" fill="#89E1F3"/>
<path d="M23.1712 50.0142H17.8789V55.3014H23.1712V50.0142Z" fill="#89E1F3"/>
<path d="M32.0399 32.2949H26.7476V37.5821H32.0399V32.2949Z" fill="#89E1F3"/>
<path d="M32.0399 41.1543H26.7476V46.4415H32.0399V41.1543Z" fill="#89E1F3"/>
<path d="M32.0399 50.0142H26.7476V55.3014H32.0399V50.0142Z" fill="#89E1F3"/>
<path d="M40.908 41.1543H35.6157V46.4415H40.908V41.1543Z" fill="#89E1F3"/>
<path d="M40.908 50.0142H35.6157V55.3014H40.908V50.0142Z" fill="#89E1F3"/>
<path d="M40.908 32.2949H35.6157V37.5821H40.908V32.2949Z" fill="#89E1F3"/>
<path d="M49.7762 32.2949H44.4839V37.5821H49.7762V32.2949Z" fill="#89E1F3"/>
<path d="M49.7762 41.1543H44.4839V46.4415H49.7762V41.1543Z" fill="#89E1F3"/>
<path d="M49.7762 50.0142H44.4839V55.3014H49.7762V50.0142Z" fill="#89E1F3"/>
<path d="M20.4547 2.4292C13.1599 2.4292 7.29541 8.288 7.29541 15.5758C7.29541 22.8635 13.1599 28.7223 20.4547 28.7223C27.7495 28.7223 33.614 22.8635 33.614 15.5758C33.614 8.288 27.6065 2.4292 20.4547 2.4292ZM20.4547 23.2922C16.1636 23.2922 12.5877 19.7198 12.5877 15.4329C12.5877 11.1459 16.1636 7.57351 20.4547 7.57351C24.7458 7.57351 28.3216 11.1459 28.3216 15.4329C28.3216 19.8627 24.7458 23.2922 20.4547 23.2922Z" fill="#8C9EFB"/>
<path d="M0 34.4384V41.1546V46.4418V55.3014H5.29232V46.4418V41.1546V29.1512V28.5796L0 33.8668V34.4384Z" fill="#8C9EFB"/>
<path d="M40.0502 14.7184V17.5764V28.5795H45.3425V19.7199V17.5764V17.1477V14.1469V8.14516V7.71646V6.71618L38.6198 0L34.9009 3.71534L40.0502 9.00254V14.7184Z" fill="#8C9EFB"/>
</svg>
