<svg width="41" height="80" viewBox="0 0 41 80" fill="none" xmlns="http://www.w3.org/2000/svg">
<path d="M5.2923 56.7305H0V62.0177H5.2923V56.7305Z" fill="#89E1F3"/>
<path d="M5.2923 65.5898H0V70.877H5.2923V65.5898Z" fill="#89E1F3"/>
<path d="M5.2923 74.4497H0V79.7369H5.2923V74.4497Z" fill="#89E1F3"/>
<path d="M14.1609 56.7305H8.86865V62.0177H14.1609V56.7305Z" fill="#89E1F3"/>
<path d="M14.1609 65.5898H8.86865V70.877H14.1609V65.5898Z" fill="#89E1F3"/>
<path d="M14.1609 74.4497H8.86865V79.7369H14.1609V74.4497Z" fill="#89E1F3"/>
<path d="M23.0286 56.7305H17.7363V62.0177H23.0286V56.7305Z" fill="#89E1F3"/>
<path d="M23.0286 65.5898H17.7363V70.877H23.0286V65.5898Z" fill="#89E1F3"/>
<path d="M23.0286 74.4497H17.7363V79.7369H23.0286V74.4497Z" fill="#89E1F3"/>
<path d="M32.0399 56.7305H26.7476V62.0177H32.0399V56.7305Z" fill="#89E1F3"/>
<path d="M32.0399 65.5898H26.7476V70.877H32.0399V65.5898Z" fill="#89E1F3"/>
<path d="M32.0399 74.4497H26.7476V79.7369H32.0399V74.4497Z" fill="#89E1F3"/>
<path d="M40.9081 56.7305H35.6157V62.0177H40.9081V56.7305Z" fill="#89E1F3"/>
<path d="M40.9081 65.5898H35.6157V70.877H40.9081V65.5898Z" fill="#89E1F3"/>
<path d="M40.9081 74.4497H35.6157V79.7369H40.9081V74.4497Z" fill="#89E1F3"/>
<path d="M37.9045 13.1466C37.9045 5.8588 32.04 0 24.7452 0C17.4504 0 11.5859 5.8588 11.5859 13.1466C11.5859 20.4343 17.4504 26.2931 24.7452 26.2931C32.04 26.1502 37.9045 20.2914 37.9045 13.1466ZM24.8882 21.0059C20.5972 21.0059 17.0213 17.4335 17.0213 13.1466C17.0213 8.85964 20.5972 5.28721 24.8882 5.28721C29.1793 5.28721 32.7552 8.85964 32.7552 13.1466C32.7552 17.4335 29.1793 21.0059 24.8882 21.0059Z" fill="#8C9EFB"/>
<path d="M35.6158 26.8647V45.5843L30.4665 40.44L26.7476 44.1553L34.4715 51.8718L35.6158 53.015L40.9081 47.7278V47.2991V26.8647H35.6158Z" fill="#8C9EFB"/>
<path d="M8.86821 45.5843L3.71892 40.44L0 44.1553L7.72392 51.8718L8.86821 53.015L14.1605 47.7278V47.2991V26.8647H8.86821V45.5843Z" fill="#8C9EFB"/>
</svg>
