<svg width="177" height="180" viewBox="0 0 177 180" fill="none" xmlns="http://www.w3.org/2000/svg">
<path d="M110 153.333H66.6666V163.333H110V153.333Z" fill="#89E1F3"/>
<path d="M93.3333 103.333H83.3333V113.333H93.3333V103.333Z" fill="#8C9EFB"/>
<path d="M76.6666 103.333H66.6666V113.333H76.6666V103.333Z" fill="#8C9EFB"/>
<path d="M110 103.333H100V113.333H110V103.333Z" fill="#8C9EFB"/>
<path d="M126.667 95.8335H116.667V105.833H126.667V95.8335Z" fill="#8C9EFB"/>
<path d="M143.333 83.3333H133.333V93.3332H143.333V83.3333Z" fill="#8C9EFB"/>
<path d="M143.333 66.6665H133.333V76.6665H143.333V66.6665Z" fill="#8C9EFB"/>
<path d="M143.333 33.3333H133.333V43.3332H143.333V33.3333Z" fill="#8C9EFB"/>
<path d="M160 16.6665H150V26.6665H160V16.6665Z" fill="#8C9EFB"/>
<path d="M176.667 16.6665H166.667V26.6665H176.667V16.6665Z" fill="#8C9EFB"/>
<path d="M176.667 33.3333H166.667V43.3332H176.667V33.3333Z" fill="#8C9EFB"/>
<path d="M126.667 0H116.667V10H126.667V0Z" fill="#8C9EFB"/>
<path d="M93.3333 0H83.3333V10H93.3333V0Z" fill="#8C9EFB"/>
<path d="M60 0H50V10H60V0Z" fill="#8C9EFB"/>
<path d="M143.333 50H133.333V60H143.333V50Z" fill="#8C9EFB"/>
<path d="M160 50H150V60H160V50Z" fill="#8C9EFB"/>
<path d="M143.333 16.6665H133.333V26.6665H143.333V16.6665Z" fill="#8C9EFB"/>
<path d="M143.333 0H133.333V10H143.333V0Z" fill="#8C9EFB"/>
<path d="M110 0H100V10H110V0Z" fill="#8C9EFB"/>
<path d="M76.6666 0H66.6666V10H76.6666V0Z" fill="#8C9EFB"/>
<path d="M10 16.6665H0V26.6665H10V16.6665Z" fill="#8C9EFB"/>
<path d="M10 33.3333H0V43.3332H10V33.3333Z" fill="#8C9EFB"/>
<path d="M26.6666 16.6665H16.6666V26.6665H26.6666V16.6665Z" fill="#8C9EFB"/>
<path d="M43.3332 16.6665H33.3333V26.6665H43.3332V16.6665Z" fill="#8C9EFB"/>
<path d="M43.3333 0H33.3333V10H43.3333V0Z" fill="#8C9EFB"/>
<path d="M43.3332 83.3333H33.3333V93.3332H43.3332V83.3333Z" fill="#8C9EFB"/>
<path d="M43.3332 66.6665H33.3333V76.6665H43.3332V66.6665Z" fill="#8C9EFB"/>
<path d="M43.3332 33.3333H33.3333V43.3332H43.3332V33.3333Z" fill="#8C9EFB"/>
<path d="M43.3332 50H33.3333V60H43.3332V50Z" fill="#8C9EFB"/>
<path d="M26.6666 50H16.6666V60H26.6666V50Z" fill="#8C9EFB"/>
<path d="M60 95.8335H50V105.833H60V95.8335Z" fill="#8C9EFB"/>
<path d="M129.167 170H45.8333V180H129.167V170Z" fill="#89E1F3"/>
<path d="M100.676 48.6985L110.833 66.2109L100.963 71.8893L88.6979 50.7504L95.2618 39.3936L99.5739 46.7421L100.676 48.6985Z" fill="white"/>
<path d="M80.84 33.3335H64.1666V44.6906H74.2281L80.84 33.3335Z" fill="white"/>
<path d="M74.3239 48.6986L64.1666 66.2109L74.0365 71.8893L87.5476 48.6031L94.0636 37.3418L91.7639 33.3335H83.2355L74.3239 48.6986Z" fill="white"/>
<path d="M94.1599 33.3335H110.833V44.6906H100.772L94.1599 33.3335Z" fill="white"/>
<path d="M88.3333 120L100.602 146.875H76.0646L88.3333 120Z" fill="#89E1F3"/>
</svg>
