<svg width="20" height="20" viewBox="0 0 20 20" fill="none" xmlns="http://www.w3.org/2000/svg">
<path d="M16.2445 0C17.2772 0 18.1601 0.366753 18.8934 1.10026C19.6266 1.83377 19.9933 2.71701 19.9933 3.75V16.25C19.9933 17.283 19.6266 18.1662 18.8934 18.8997C18.1601 19.6332 17.2772 20 16.2445 20H13.7974V12.2526H16.3877L16.7782 9.23177H13.7974V7.30469C13.7974 6.81858 13.8994 6.45399 14.1033 6.21094C14.3072 5.96788 14.7042 5.84635 15.2943 5.84635L16.8823 5.83333V3.13802C16.3356 3.0599 15.5633 3.02083 14.5654 3.02083C13.3852 3.02083 12.4416 3.36806 11.7343 4.0625C11.0271 4.75694 10.6735 5.73785 10.6735 7.00521V9.23177H8.0702V12.2526H10.6735V20H3.74874C2.7161 20 1.83315 19.6332 1.09989 18.8997C0.36663 18.1662 0 17.283 0 16.25V3.75C0 2.71701 0.36663 1.83377 1.09989 1.10026C1.83315 0.366753 2.7161 0 3.74874 0H16.2445Z" fill="white"/>
</svg>
