<svg width="74" height="73" viewBox="0 0 74 73" fill="none" xmlns="http://www.w3.org/2000/svg">
<path d="M41.97 73H39.97V68.53L40.51 68.25C42.8 67.07 44.48 65.16 45.37 62.74L45.41 62.65L50.37 52.47C51.16 50.58 51.22 49.1 50.53 48.13C49.94 47.3 48.83 46.9 47.89 46.77L47.9 51.03L45.9 51.04L45.86 44.79H45.88L45.85 27.89C45.86 27.21 44.82 26.51 43.78 26.5C42.86 26.5 41.96 27.21 41.95 27.99L41.74 46.19L39.74 46.17L39.82 38.53C39.83 37.82 38.75 37.14 37.6 37.12C37.01 37.1 36.42 37.3 35.98 37.63C35.61 37.91 35.4 38.25 35.39 38.58V46.1L33.39 46.11L33.33 40.13C33.34 39.43 32.39 38.67 31.01 38.65C29.66 38.61 28.71 39.81 28.7 40.58L28.74 41.98C28.75 42.07 28.75 42.17 28.75 42.26L28.85 46.06L26.85 46.11L26.75 42.12C26.73 41.87 26.64 41.69 26.49 41.55C26.26 41.33 25.9 41.22 25.5 41.24C24.75 41.28 24.32 41.52 24.02 42.72L23.98 59.94C24.26 61.92 25.52 64.13 27.71 66.5L27.98 66.79V73H25.98V67.56C23.64 64.96 22.3 62.46 21.99 60.13L21.97 60L22.03 42.36C22.33 41.09 23 39.38 25.37 39.24C25.91 39.21 26.44 39.3 26.91 39.49C27.46 37.98 29.03 36.65 30.99 36.65C31.01 36.65 31.02 36.65 31.04 36.65C32.04 36.66 32.95 36.93 33.68 37.38C33.91 36.88 34.29 36.42 34.79 36.04C35.59 35.44 36.61 35.11 37.64 35.12C38.46 35.13 39.23 35.33 39.88 35.66L39.97 27.96C39.99 26.09 41.76 24.46 43.82 24.5C45.79 24.52 47.89 25.9 47.86 27.9L47.89 44.76C49.28 44.9 51.09 45.47 52.16 46.97C53.28 48.54 53.29 50.67 52.2 53.29L47.24 63.48C46.24 66.16 44.43 68.31 41.98 69.73V73H41.97Z" fill="white"/>
<path d="M6 30.5H4V51.5H6V30.5Z" fill="black"/>
<path d="M37 10C34.24 10 32 7.76 32 5C32 2.24 34.24 0 37 0C39.76 0 42 2.24 42 5C42 7.76 39.76 10 37 10ZM37 2C35.35 2 34 3.35 34 5C34 6.65 35.35 8 37 8C38.65 8 40 6.65 40 5C40 3.35 38.66 2 37 2Z" fill="black"/>
<path d="M38 9H36V22H38V9Z" fill="black"/>
<path d="M4.99001 27.9999C4.14001 27.9999 3.28001 27.7799 2.50001 27.3299C1.34001 26.6599 0.520006 25.5799 0.170006 24.2899C-0.169994 22.9999 5.96046e-06 21.6599 0.670006 20.4999C1.34001 19.3399 2.42001 18.5199 3.71001 18.1699C5.00001 17.8299 6.35001 17.9999 7.50001 18.6699C8.66001 19.3399 9.48001 20.4199 9.83001 21.7099C10.18 22.9999 10 24.3399 9.33001 25.4999C8.41001 27.0999 6.72001 27.9999 4.99001 27.9999ZM5.01001 19.9999C4.75001 19.9999 4.49001 20.0299 4.23001 20.0999C3.46001 20.3099 2.81001 20.7999 2.41001 21.4999C1.58001 22.9299 2.08001 24.7699 3.51001 25.5999C4.94001 26.4299 6.78001 25.9299 7.61001 24.4999C8.00001 23.8099 8.11001 22.9999 7.90001 22.2199C7.69001 21.4499 7.20001 20.7999 6.50001 20.3999C6.04001 20.1299 5.53001 19.9999 5.01001 19.9999Z" fill="black"/>
<path d="M8.968 24.1303L7.968 25.8623L19.226 32.3623L20.226 30.6303L8.968 24.1303Z" fill="black"/>
<path d="M69.01 27.9999C67.28 27.9999 65.6 27.0999 64.67 25.4999C64 24.3399 63.83 22.9999 64.17 21.7099C64.52 20.4199 65.34 19.3399 66.5 18.6699C67.66 17.9999 69 17.8299 70.29 18.1699C71.58 18.5199 72.66 19.3399 73.33 20.4999C74 21.6599 74.18 22.9999 73.83 24.2899C73.48 25.5799 72.66 26.6599 71.5 27.3299C70.72 27.7799 69.86 27.9999 69.01 27.9999ZM69 19.9999C68.48 19.9999 67.97 20.1399 67.5 20.3999C66.81 20.7999 66.31 21.4499 66.1 22.2199C65.9 22.9999 66 23.8099 66.4 24.4999C67.23 25.9299 69.07 26.4199 70.5 25.5999C71.93 24.7699 72.42 22.9299 71.6 21.4999C71.2 20.8099 70.55 20.3099 69.78 20.0999C69.52 20.0299 69.26 19.9999 69 19.9999Z" fill="black"/>
<path d="M65.0406 24.1356L53.7813 30.6343L54.7811 32.3665L66.0404 25.8678L65.0406 24.1356Z" fill="black"/>
<path d="M68.99 63.9999C68.12 63.9999 67.27 63.7699 66.5 63.3299C65.34 62.6599 64.52 61.5799 64.17 60.2899C63.83 58.9999 64 57.6599 64.67 56.4999C65.34 55.3399 66.42 54.5199 67.71 54.1699C69 53.8199 70.35 53.9999 71.5 54.6699C73.89 56.0499 74.71 59.1099 73.33 61.4999C72.66 62.6599 71.58 63.4799 70.29 63.8299C69.86 63.9399 69.43 63.9999 68.99 63.9999ZM69.01 55.9999C68.75 55.9999 68.49 56.0299 68.23 56.0999C67.46 56.3099 66.81 56.7999 66.41 57.4999C66.01 58.1899 65.9 58.9999 66.11 59.7799C66.32 60.5499 66.81 61.1999 67.51 61.5999C68.94 62.4299 70.78 61.9399 71.61 60.4999C72.44 59.0699 71.94 57.2299 70.51 56.3999C70.04 56.1299 69.53 55.9999 69.01 55.9999Z" fill="black"/>
<path d="M56.1304 50.3852L55.1268 52.1152L65.0397 57.8659L66.0433 56.1359L56.1304 50.3852Z" fill="black"/>
<path d="M5.01001 63.9999C4.58001 63.9999 4.14001 63.9399 3.71001 63.8299C2.42001 63.4799 1.34001 62.6599 0.670013 61.4999C-0.709987 59.1099 0.110013 56.0499 2.50001 54.6699C3.66001 53.9999 5.01001 53.8299 6.29001 54.1699C7.58001 54.5199 8.66001 55.3399 9.33001 56.4999C10 57.6599 10.18 58.9999 9.83001 60.2899C9.48001 61.5799 8.66001 62.6599 7.50001 63.3299C6.73001 63.7699 5.88001 63.9999 5.01001 63.9999ZM5.00001 55.9999C4.48001 55.9999 3.97001 56.1399 3.50001 56.3999C2.07001 57.2299 1.58001 59.0699 2.40001 60.4999C3.23001 61.9299 5.07001 62.4299 6.50001 61.5999C7.19001 61.1999 7.69001 60.5499 7.90001 59.7799C8.11001 58.9999 8.00001 58.1899 7.60001 57.4999C7.20001 56.8099 6.55001 56.3099 5.78001 56.0999C5.52001 56.0299 5.26001 55.9999 5.00001 55.9999Z" fill="black"/>
<path d="M19.2283 49.6344L7.96899 56.1331L8.96879 57.8653L20.2281 51.3666L19.2283 49.6344Z" fill="black"/>
<path d="M70.09 30.5H68.09V51.5H70.09V30.5Z" fill="black"/>
<path d="M44.4861 6.97089L43.5297 8.72729L62.1826 18.8843L63.139 17.1279L44.4861 6.97089Z" fill="black"/>
<path d="M29.5592 6.94614L10.8933 16.9558L11.8385 18.7184L30.5044 8.70874L29.5592 6.94614Z" fill="black"/>
</svg>
