<svg width="21" height="20" viewBox="0 0 21 20" fill="none" xmlns="http://www.w3.org/2000/svg">
<path d="M10.8175 6.66525C8.98186 6.66525 7.48388 8.16376 7.48388 10C7.48388 11.8362 8.98186 13.3348 10.8175 13.3348C12.6531 13.3348 14.151 11.8362 14.151 10C14.151 8.16376 12.6531 6.66525 10.8175 6.66525ZM20.8157 10C20.8157 8.61907 20.8282 7.25064 20.7507 5.87221C20.6731 4.27113 20.308 2.85017 19.1376 1.67938C17.9648 0.506085 16.5468 0.14334 14.9463 0.065788C13.5658 -0.0117644 12.1979 0.000744113 10.82 0.000744113C9.43951 0.000744113 8.07157 -0.0117644 6.69363 0.065788C5.09311 0.14334 3.67265 0.508587 2.50227 1.67938C1.32939 2.85267 0.966776 4.27113 0.889251 5.87221C0.811726 7.25314 0.82423 8.62157 0.82423 10C0.82423 11.3784 0.811726 12.7494 0.889251 14.1278C0.966776 15.7289 1.33189 17.1498 2.50227 18.3206C3.67515 19.4939 5.09311 19.8567 6.69363 19.9342C8.07407 20.0118 9.44201 19.9993 10.82 19.9993C12.2004 19.9993 13.5683 20.0118 14.9463 19.9342C16.5468 19.8567 17.9673 19.4914 19.1376 18.3206C20.3105 17.1473 20.6731 15.7289 20.7507 14.1278C20.8307 12.7494 20.8157 11.3809 20.8157 10ZM10.8175 15.131C7.97904 15.131 5.6883 12.8394 5.6883 10C5.6883 7.16058 7.97904 4.86903 10.8175 4.86903C13.6559 4.86903 15.9466 7.16058 15.9466 10C15.9466 12.8394 13.6559 15.131 10.8175 15.131ZM16.1567 5.8572C15.494 5.8572 14.9588 5.32184 14.9588 4.65889C14.9588 3.99594 15.494 3.46058 16.1567 3.46058C16.8194 3.46058 17.3546 3.99594 17.3546 4.65889C17.3548 4.81631 17.3239 4.97222 17.2638 5.1177C17.2037 5.26317 17.1154 5.39535 17.0042 5.50666C16.8929 5.61798 16.7608 5.70624 16.6153 5.76639C16.4699 5.82654 16.314 5.8574 16.1567 5.8572Z" fill="white"/>
</svg>
