<svg width="105" height="104" viewBox="0 0 105 104" fill="none" xmlns="http://www.w3.org/2000/svg">
<path d="M21.7961 66.6648V65.5368H23.9201V60.5208H22.2281V59.6568C22.4681 59.6248 22.6841 59.5888 22.8761 59.5488C23.0681 59.5008 23.2441 59.4528 23.4041 59.4048C23.5721 59.3568 23.7281 59.3008 23.8721 59.2368C24.0161 59.1728 24.1561 59.1048 24.2921 59.0328H25.3001V65.5368H27.1721V66.6648H21.7961ZM31.5354 66.8088C30.6634 66.8088 29.9714 66.4648 29.4594 65.7768C28.9554 65.0888 28.7034 64.1008 28.7034 62.8128C28.7034 61.5168 28.9554 60.5408 29.4594 59.8848C29.9714 59.2208 30.6634 58.8888 31.5354 58.8888C32.4074 58.8888 33.0954 59.2208 33.5994 59.8848C34.1114 60.5408 34.3674 61.5168 34.3674 62.8128C34.3674 64.1008 34.1114 65.0888 33.5994 65.7768C33.0954 66.4648 32.4074 66.8088 31.5354 66.8088ZM31.5354 65.7288C31.7594 65.7288 31.9674 65.6768 32.1594 65.5728C32.3594 65.4608 32.5274 65.2888 32.6634 65.0568C32.8074 64.8248 32.9194 64.5248 32.9994 64.1568C33.0794 63.7808 33.1194 63.3328 33.1194 62.8128C33.1194 62.2928 33.0794 61.8528 32.9994 61.4928C32.9194 61.1248 32.8074 60.8288 32.6634 60.6048C32.5274 60.3808 32.3594 60.2208 32.1594 60.1248C31.9674 60.0208 31.7594 59.9688 31.5354 59.9688C31.3034 59.9688 31.0914 60.0208 30.8994 60.1248C30.7074 60.2208 30.5394 60.3808 30.3954 60.6048C30.2594 60.8288 30.1514 61.1248 30.0714 61.4928C29.9914 61.8528 29.9514 62.2928 29.9514 62.8128C29.9514 63.3328 29.9914 63.7808 30.0714 64.1568C30.1514 64.5248 30.2594 64.8248 30.3954 65.0568C30.5394 65.2888 30.7074 65.4608 30.8994 65.5728C31.0914 65.6768 31.3034 65.7288 31.5354 65.7288ZM31.5354 63.6168C31.3034 63.6168 31.1074 63.5408 30.9474 63.3888C30.7874 63.2368 30.7074 63.0288 30.7074 62.7648C30.7074 62.5008 30.7874 62.2928 30.9474 62.1408C31.1074 61.9888 31.3034 61.9128 31.5354 61.9128C31.7674 61.9128 31.9634 61.9888 32.1234 62.1408C32.2834 62.2928 32.3634 62.5008 32.3634 62.7648C32.3634 63.0288 32.2834 63.2368 32.1234 63.3888C31.9634 63.5408 31.7674 63.6168 31.5354 63.6168ZM36.1867 66.6648V65.5368H38.3107V60.5208H36.6187V59.6568C36.8587 59.6248 37.0747 59.5888 37.2667 59.5488C37.4587 59.5008 37.6347 59.4528 37.7947 59.4048C37.9627 59.3568 38.1187 59.3008 38.2627 59.2368C38.4067 59.1728 38.5467 59.1048 38.6827 59.0328H39.6907V65.5368H41.5627V66.6648H36.1867ZM24.3401 84.8088C23.4681 84.8088 22.7761 84.4648 22.2641 83.7768C21.7601 83.0888 21.5081 82.1008 21.5081 80.8128C21.5081 79.5168 21.7601 78.5408 22.2641 77.8848C22.7761 77.2208 23.4681 76.8888 24.3401 76.8888C25.2121 76.8888 25.9001 77.2208 26.4041 77.8848C26.9161 78.5408 27.1721 79.5168 27.1721 80.8128C27.1721 82.1008 26.9161 83.0888 26.4041 83.7768C25.9001 84.4648 25.2121 84.8088 24.3401 84.8088ZM24.3401 83.7288C24.5641 83.7288 24.7721 83.6768 24.9641 83.5728C25.1641 83.4608 25.3321 83.2888 25.4681 83.0568C25.6121 82.8248 25.7241 82.5248 25.8041 82.1568C25.8841 81.7808 25.9241 81.3328 25.9241 80.8128C25.9241 80.2928 25.8841 79.8528 25.8041 79.4928C25.7241 79.1248 25.6121 78.8288 25.4681 78.6048C25.3321 78.3808 25.1641 78.2208 24.9641 78.1248C24.7721 78.0208 24.5641 77.9688 24.3401 77.9688C24.1081 77.9688 23.8961 78.0208 23.7041 78.1248C23.5121 78.2208 23.3441 78.3808 23.2001 78.6048C23.0641 78.8288 22.9561 79.1248 22.8761 79.4928C22.7961 79.8528 22.7561 80.2928 22.7561 80.8128C22.7561 81.3328 22.7961 81.7808 22.8761 82.1568C22.9561 82.5248 23.0641 82.8248 23.2001 83.0568C23.3441 83.2888 23.5121 83.4608 23.7041 83.5728C23.8961 83.6768 24.1081 83.7288 24.3401 83.7288ZM24.3401 81.6168C24.1081 81.6168 23.9121 81.5408 23.7521 81.3888C23.5921 81.2368 23.5121 81.0288 23.5121 80.7648C23.5121 80.5008 23.5921 80.2928 23.7521 80.1408C23.9121 79.9888 24.1081 79.9128 24.3401 79.9128C24.5721 79.9128 24.7681 79.9888 24.9281 80.1408C25.0881 80.2928 25.1681 80.5008 25.1681 80.7648C25.1681 81.0288 25.0881 81.2368 24.9281 81.3888C24.7681 81.5408 24.5721 81.6168 24.3401 81.6168ZM31.5354 84.8088C30.6634 84.8088 29.9714 84.4648 29.4594 83.7768C28.9554 83.0888 28.7034 82.1008 28.7034 80.8128C28.7034 79.5168 28.9554 78.5408 29.4594 77.8848C29.9714 77.2208 30.6634 76.8888 31.5354 76.8888C32.4074 76.8888 33.0954 77.2208 33.5994 77.8848C34.1114 78.5408 34.3674 79.5168 34.3674 80.8128C34.3674 82.1008 34.1114 83.0888 33.5994 83.7768C33.0954 84.4648 32.4074 84.8088 31.5354 84.8088ZM31.5354 83.7288C31.7594 83.7288 31.9674 83.6768 32.1594 83.5728C32.3594 83.4608 32.5274 83.2888 32.6634 83.0568C32.8074 82.8248 32.9194 82.5248 32.9994 82.1568C33.0794 81.7808 33.1194 81.3328 33.1194 80.8128C33.1194 80.2928 33.0794 79.8528 32.9994 79.4928C32.9194 79.1248 32.8074 78.8288 32.6634 78.6048C32.5274 78.3808 32.3594 78.2208 32.1594 78.1248C31.9674 78.0208 31.7594 77.9688 31.5354 77.9688C31.3034 77.9688 31.0914 78.0208 30.8994 78.1248C30.7074 78.2208 30.5394 78.3808 30.3954 78.6048C30.2594 78.8288 30.1514 79.1248 30.0714 79.4928C29.9914 79.8528 29.9514 80.2928 29.9514 80.8128C29.9514 81.3328 29.9914 81.7808 30.0714 82.1568C30.1514 82.5248 30.2594 82.8248 30.3954 83.0568C30.5394 83.2888 30.7074 83.4608 30.8994 83.5728C31.0914 83.6768 31.3034 83.7288 31.5354 83.7288ZM31.5354 81.6168C31.3034 81.6168 31.1074 81.5408 30.9474 81.3888C30.7874 81.2368 30.7074 81.0288 30.7074 80.7648C30.7074 80.5008 30.7874 80.2928 30.9474 80.1408C31.1074 79.9888 31.3034 79.9128 31.5354 79.9128C31.7674 79.9128 31.9634 79.9888 32.1234 80.1408C32.2834 80.2928 32.3634 80.5008 32.3634 80.7648C32.3634 81.0288 32.2834 81.2368 32.1234 81.3888C31.9634 81.5408 31.7674 81.6168 31.5354 81.6168ZM36.1867 84.6648V83.5368H38.3107V78.5208H36.6187V77.6568C36.8587 77.6248 37.0747 77.5888 37.2667 77.5488C37.4587 77.5008 37.6347 77.4528 37.7947 77.4048C37.9627 77.3568 38.1187 77.3008 38.2627 77.2368C38.4067 77.1728 38.5467 77.1048 38.6827 77.0328H39.6907V83.5368H41.5627V84.6648H36.1867ZM45.926 84.8088C45.054 84.8088 44.362 84.4648 43.85 83.7768C43.346 83.0888 43.094 82.1008 43.094 80.8128C43.094 79.5168 43.346 78.5408 43.85 77.8848C44.362 77.2208 45.054 76.8888 45.926 76.8888C46.798 76.8888 47.4861 77.2208 47.9901 77.8848C48.5021 78.5408 48.758 79.5168 48.758 80.8128C48.758 82.1008 48.5021 83.0888 47.9901 83.7768C47.4861 84.4648 46.798 84.8088 45.926 84.8088ZM45.926 83.7288C46.15 83.7288 46.358 83.6768 46.5501 83.5728C46.75 83.4608 46.918 83.2888 47.0541 83.0568C47.1981 82.8248 47.3101 82.5248 47.3901 82.1568C47.47 81.7808 47.51 81.3328 47.51 80.8128C47.51 80.2928 47.47 79.8528 47.3901 79.4928C47.3101 79.1248 47.1981 78.8288 47.0541 78.6048C46.918 78.3808 46.75 78.2208 46.5501 78.1248C46.358 78.0208 46.15 77.9688 45.926 77.9688C45.6941 77.9688 45.4821 78.0208 45.29 78.1248C45.098 78.2208 44.93 78.3808 44.786 78.6048C44.65 78.8288 44.542 79.1248 44.462 79.4928C44.382 79.8528 44.342 80.2928 44.342 80.8128C44.342 81.3328 44.382 81.7808 44.462 82.1568C44.542 82.5248 44.65 82.8248 44.786 83.0568C44.93 83.2888 45.098 83.4608 45.29 83.5728C45.4821 83.6768 45.6941 83.7288 45.926 83.7288ZM45.926 81.6168C45.6941 81.6168 45.4981 81.5408 45.3381 81.3888C45.178 81.2368 45.098 81.0288 45.098 80.7648C45.098 80.5008 45.178 80.2928 45.3381 80.1408C45.4981 79.9888 45.6941 79.9128 45.926 79.9128C46.1581 79.9128 46.3541 79.9888 46.514 80.1408C46.674 80.2928 46.7541 80.5008 46.7541 80.7648C46.7541 81.0288 46.674 81.2368 46.514 81.3888C46.3541 81.5408 46.1581 81.6168 45.926 81.6168ZM50.5774 84.6648V83.5368H52.7014V78.5208H51.0094V77.6568C51.2494 77.6248 51.4654 77.5888 51.6574 77.5488C51.8494 77.5008 52.0254 77.4528 52.1854 77.4048C52.3534 77.3568 52.5094 77.3008 52.6534 77.2368C52.7974 77.1728 52.9374 77.1048 53.0734 77.0328H54.0814V83.5368H55.9534V84.6648H50.5774Z" fill="black"/>
<path d="M96.4649 98.7855V42.2473C96.4649 41.1427 95.5694 40.2473 94.4649 40.2473H10.5683C9.46377 40.2473 8.56834 41.1427 8.56834 42.2473V98.7855M96.4649 98.7855H8.56834M96.4649 98.7855H102.997C103.273 98.7855 103.497 99.0094 103.497 99.2855V100.497C103.497 101.601 102.601 102.497 101.497 102.497H3.53662C2.43205 102.497 1.53662 101.601 1.53662 100.497V99.2855C1.53662 99.0094 1.76048 98.7855 2.03662 98.7855H8.56834" stroke="black" stroke-width="1.2"/>
<path d="M69.6887 67.6155L86.8609 67.6155" stroke="black" stroke-width="1.2" stroke-linecap="round" stroke-linejoin="round"/>
<path d="M69.6887 70.8352L86.8609 70.8352" stroke="black" stroke-width="1.2" stroke-linecap="round" stroke-linejoin="round"/>
<path d="M69.6887 74.0552L86.8609 74.0552" stroke="black" stroke-width="1.2" stroke-linecap="round" stroke-linejoin="round"/>
<path d="M69.6887 77.2749L86.8609 77.2749" stroke="black" stroke-width="1.2" stroke-linecap="round" stroke-linejoin="round"/>
<rect x="18.7721" y="45.6771" width="43.877" height="43.877" rx="1.4" stroke="black" stroke-width="1.2"/>
<path d="M12.8059 47.7603V94.0571C12.8059 95.1616 13.7013 96.0571 14.8059 96.0571H91.3006C92.4052 96.0571 93.3006 95.1616 93.3006 94.0571V72.4453" stroke="black" stroke-width="1.2"/>
<path d="M99.8867 71.9087L49.1503 71.9087C48.0458 71.9087 47.1503 71.0133 47.1503 69.9087L47.1503 35.543L47.1503 33.1248C47.1503 32.0202 48.0458 31.1248 49.1503 31.1248L92.9921 31.1248L99.8867 31.1248C100.991 31.1248 101.887 32.0202 101.887 33.1248L101.887 35.543L101.887 39.9613L101.887 69.9087C101.887 71.0133 100.991 71.9087 99.8867 71.9087Z" fill="white"/>
<path d="M101.887 35.543L101.887 33.1248C101.887 32.0202 100.991 31.1248 99.8867 31.1248L92.9921 31.1248L49.1503 31.1248C48.0458 31.1248 47.1503 32.0202 47.1503 33.1248L47.1503 35.543M101.887 35.543L101.887 39.9613L101.887 69.9087C101.887 71.0133 100.991 71.9087 99.8867 71.9087L49.1503 71.9087C48.0458 71.9087 47.1503 71.0133 47.1503 69.9087L47.1503 35.543M101.887 35.543L47.1503 35.543" stroke="black" stroke-width="1.2"/>
<path d="M81.4948 42.9304L98.667 42.9304" stroke="black" stroke-width="1.2" stroke-linecap="round" stroke-linejoin="round"/>
<path d="M81.4948 46.1504L98.667 46.1504" stroke="black" stroke-width="1.2" stroke-linecap="round" stroke-linejoin="round"/>
<path d="M81.4948 49.3701L98.667 49.3701" stroke="black" stroke-width="1.2" stroke-linecap="round" stroke-linejoin="round"/>
<path d="M81.4948 52.5898L98.667 52.5898" stroke="black" stroke-width="1.2" stroke-linecap="round" stroke-linejoin="round"/>
<rect x="53.1166" y="41.3839" width="24.5583" height="24.5583" rx="1.4" stroke="white" stroke-width="1.2"/>
<rect x="43.4572" y="0.6" width="59.976" height="20.2653" rx="1.4" fill="white" stroke="black" stroke-width="1.2"/>
<rect x="1.6" y="27.4315" width="59.976" height="20.2653" rx="1.4" fill="white" stroke="black" stroke-width="1.2"/>
<path d="M64.8591 6.43945H99.2035" stroke="black" stroke-width="1.2" stroke-linecap="round" stroke-linejoin="round"/>
<path d="M23.0018 33.2712H57.3462" stroke="black" stroke-width="1.2" stroke-linecap="round" stroke-linejoin="round"/>
<path d="M64.8591 10.7327H99.2035" stroke="black" stroke-width="1.2" stroke-linecap="round" stroke-linejoin="round"/>
<path d="M23.0018 37.5642H57.3462" stroke="black" stroke-width="1.2" stroke-linecap="round" stroke-linejoin="round"/>
<path d="M64.8591 14.489H99.2035" stroke="black" stroke-width="1.2" stroke-linecap="round" stroke-linejoin="round"/>
<path d="M23.0018 41.3206H57.3462" stroke="black" stroke-width="1.2" stroke-linecap="round" stroke-linejoin="round"/>
<path d="M45.6037 10.7326C45.6037 6.32198 49.1792 2.74648 53.5898 2.74648C58.0004 2.74648 61.5759 6.32198 61.5759 10.7326C61.5759 15.1432 58.0004 18.7187 53.5898 18.7187C49.1792 18.7187 45.6037 15.1432 45.6037 10.7326Z" stroke="white" stroke-width="1.2"/>
<path d="M3.74648 29.7088C3.74648 29.6366 3.80502 29.578 3.87722 29.578H19.588C19.6602 29.578 19.7187 29.6366 19.7187 29.7088V45.4195C19.7187 45.4917 19.6602 45.5502 19.588 45.5502H3.87722C3.80502 45.5502 3.74648 45.4917 3.74648 45.4195V29.7088Z" stroke="white" stroke-width="1.2"/>
<path d="M49.8335 8.04932L53.5899 13.9523L57.3463 8.04932" stroke="black" stroke-width="1.2" stroke-linecap="round" stroke-linejoin="round"/>
<path d="M5.82971 31.6614L17.6356 43.4673M5.82971 43.4673L17.6356 31.6614" stroke="black" stroke-width="1.2" stroke-linecap="round" stroke-linejoin="round"/>
<path d="M21.392 22.5386C22.7571 10.6647 27.1044 7.86284 40.1741 8.58616" stroke="black" stroke-width="1.2" stroke-linecap="round" stroke-linejoin="round"/>
</svg>
