<svg width="104" height="104" viewBox="0 0 104 104" fill="none" xmlns="http://www.w3.org/2000/svg">
<path d="M63.968 34.376L57.888 30.344V29.032L63.968 25V26.712L59.44 29.656V29.72L63.968 32.664V34.376ZM66.9698 37.56L72.2338 23.64H73.8177L68.5538 37.56H66.9698ZM76.8195 34.376V32.664L81.3475 29.72V29.656L76.8195 26.712V25L82.8995 29.032V30.344L76.8195 34.376Z" fill="black"/>
<path d="M90.1878 17.0151H46.4132C45.2339 17.0151 44.2779 17.9711 44.2779 19.1504V42.1054H52.2854C54.1189 42.2015 54.7845 42.6888 54.9546 44.7746V65.0604H90.1878C91.3671 65.0604 92.3231 64.1043 92.3231 62.925V19.1504C92.3231 17.9711 91.3671 17.0151 90.1878 17.0151Z" stroke="black" stroke-width="1.2"/>
<path d="M28.4051 56.519C28.4051 55.3397 29.3611 54.3836 30.5405 54.3836H48.4062C49.5855 54.3836 50.5415 55.3397 50.5415 56.519V85.3461C50.5415 86.5255 49.5855 87.4815 48.4062 87.4815H30.5405C29.3611 87.4815 28.4051 86.5255 28.4051 85.3461V56.519Z" stroke="black" stroke-width="1.2"/>
<path d="M79.511 72.5341C79.511 71.3548 80.4671 70.3987 81.6464 70.3987H91.2554C92.4348 70.3987 93.3908 71.3548 93.3908 72.5341V86.4138C93.3908 87.5931 92.4348 88.5492 91.2554 88.5492H81.6464C80.4671 88.5492 79.511 87.5931 79.511 86.4138V72.5341Z" stroke="black" stroke-width="1.2"/>
<path d="M3.17246 1H100.331C101.51 1 102.466 1.95603 102.466 3.13535V8.47371H1.03711V3.13535C1.03711 1.95603 1.99314 1 3.17246 1Z" stroke="black" stroke-width="1.2"/>
<path d="M9.04465 42.0391C8.71328 42.0391 8.44465 42.3078 8.44465 42.6391C8.44465 42.9705 8.71328 43.2391 9.04465 43.2391V42.0391ZM9.04465 45.2422C8.71328 45.2422 8.44465 45.5108 8.44465 45.8422C8.44465 46.1735 8.71328 46.4422 9.04465 46.4422V45.2422ZM9.04465 33.4978C8.71328 33.4978 8.44465 33.7664 8.44465 34.0978C8.44465 34.4291 8.71328 34.6978 9.04465 34.6978V33.4978ZM35.7365 34.6978C36.0678 34.6978 36.3365 34.4291 36.3365 34.0978C36.3365 33.7664 36.0678 33.4978 35.7365 33.4978V34.6978ZM9.04465 48.4452C8.71328 48.4452 8.44465 48.7138 8.44465 49.0452C8.44465 49.3765 8.71328 49.6452 9.04465 49.6452V48.4452ZM9.04465 51.6482C8.71328 51.6482 8.44465 51.9168 8.44465 52.2482C8.44465 52.5796 8.71328 52.8482 9.04465 52.8482V51.6482ZM26.1274 44.1745C25.796 44.1745 25.5274 44.4431 25.5274 44.7745C25.5274 45.1059 25.796 45.3745 26.1274 45.3745V44.1745ZM29.8643 45.3745C30.1956 45.3745 30.4643 45.1059 30.4643 44.7745C30.4643 44.4431 30.1956 44.1745 29.8643 44.1745V45.3745ZM26.1274 45.776C25.796 45.776 25.5274 46.0446 25.5274 46.376C25.5274 46.7074 25.796 46.976 26.1274 46.976V45.776ZM29.8643 46.976C30.1956 46.976 30.4643 46.7074 30.4643 46.376C30.4643 46.0446 30.1956 45.776 29.8643 45.776V46.976ZM26.1274 47.3775C25.796 47.3775 25.5274 47.6461 25.5274 47.9775C25.5274 48.3089 25.796 48.5775 26.1274 48.5775V47.3775ZM29.8643 48.5775C30.1956 48.5775 30.4643 48.3089 30.4643 47.9775C30.4643 47.6461 30.1956 47.3775 29.8643 47.3775V48.5775ZM76.308 75.2693C76.6394 75.2693 76.908 75.0007 76.908 74.6693C76.908 74.3379 76.6394 74.0693 76.308 74.0693V75.2693ZM73.105 78.4723C73.4364 78.4723 73.705 78.2037 73.705 77.8723C73.705 77.541 73.4364 77.2723 73.105 77.2723V78.4723ZM69.902 81.6754C70.2334 81.6754 70.502 81.4067 70.502 81.0754C70.502 80.744 70.2334 80.4753 69.902 80.4753V81.6754ZM75.2404 84.8784C75.5717 84.8784 75.8404 84.6097 75.8404 84.2784C75.8404 83.947 75.5717 83.6784 75.2404 83.6784V84.8784ZM5.19823 3.24483C4.96391 3.01051 4.58401 3.01051 4.3497 3.24483C4.11538 3.47914 4.11538 3.85904 4.3497 4.09335L5.19823 3.24483ZM7.55272 7.29637C7.78703 7.53069 8.16693 7.53069 8.40125 7.29637C8.63556 7.06206 8.63556 6.68216 8.40125 6.44784L7.55272 7.29637ZM4.3497 6.44784C4.11538 6.68216 4.11538 7.06206 4.3497 7.29637C4.58401 7.53069 4.96391 7.53069 5.19823 7.29637L4.3497 6.44784ZM8.40125 4.09335C8.63556 3.85904 8.63556 3.47914 8.40125 3.24483C8.16693 3.01051 7.78703 3.01051 7.55272 3.24483L8.40125 4.09335ZM11.18 4.6706C10.8486 4.6706 10.58 4.93923 10.58 5.2706C10.58 5.60197 10.8486 5.8706 11.18 5.8706V4.6706ZM14.383 5.8706C14.7144 5.8706 14.983 5.60197 14.983 5.2706C14.983 4.93923 14.7144 4.6706 14.383 4.6706V5.8706ZM0.437109 9.00745V73.0678H1.63711V9.00745H0.437109ZM103.066 73.0678V9.00745H101.866V73.0678H103.066ZM100.331 75.8032C101.841 75.8032 103.066 74.5785 103.066 73.0678H101.866C101.866 73.9158 101.179 74.6031 100.331 74.6031V75.8032ZM3.17245 74.6031C2.32451 74.6031 1.63711 73.9158 1.63711 73.0678H0.437109C0.437109 74.5785 1.66176 75.8032 3.17245 75.8032V74.6031ZM9.04465 34.6978H35.7365V33.4978H9.04465V34.6978ZM33.6011 16.415H11.18V17.615H33.6011V16.415ZM11.18 16.415C9.66931 16.415 8.44465 17.6397 8.44465 19.1503H9.64465C9.64465 18.3024 10.3321 17.615 11.18 17.615V16.415ZM8.44465 19.1503V25.5564H9.64465V19.1503H8.44465ZM8.44465 25.5564C8.44465 27.0671 9.66931 28.2917 11.18 28.2917V27.0917C10.3321 27.0917 9.64465 26.4043 9.64465 25.5564H8.44465ZM11.18 28.2917H33.6011V27.0917H11.18V28.2917ZM33.6011 28.2917C35.1118 28.2917 36.3365 27.0671 36.3365 25.5564H35.1365C35.1365 26.4043 34.4491 27.0917 33.6011 27.0917V28.2917ZM36.3365 25.5564V19.1503H35.1365V25.5564H36.3365ZM36.3365 19.1503C36.3365 17.6397 35.1118 16.415 33.6011 16.415V17.615C34.4491 17.615 35.1365 18.3024 35.1365 19.1503H36.3365ZM11.18 59.1219C9.66931 59.1219 8.44465 60.3466 8.44465 61.8572H9.64465C9.64465 61.0093 10.3321 60.3219 11.18 60.3219V59.1219ZM8.44465 61.8572V62.3911H9.64465V61.8572H8.44465ZM8.44465 62.3911C8.44465 63.9018 9.66931 65.1264 11.18 65.1264V63.9264C10.3321 63.9264 9.64465 63.239 9.64465 62.3911H8.44465ZM26.1274 42.7053H52.8192V41.5053H26.1274V42.7053ZM52.8192 42.7053C53.6672 42.7053 54.3546 43.3927 54.3546 44.2407H55.5546C55.5546 42.73 54.3299 41.5053 52.8192 41.5053V42.7053ZM54.3546 100.827C54.3546 101.675 53.6672 102.363 52.8192 102.363V103.563C54.3299 103.563 55.5546 102.338 55.5546 100.827H54.3546ZM52.8192 102.363H26.1274V103.563H52.8192V102.363ZM26.1274 102.363C25.2795 102.363 24.5921 101.675 24.5921 100.827H23.3921C23.3921 102.338 24.6167 103.563 26.1274 103.563V102.363ZM26.1274 45.3745H29.8643V44.1745H26.1274V45.3745ZM26.1274 46.976H29.8643V45.776H26.1274V46.976ZM26.1274 48.5775H29.8643V47.3775H26.1274V48.5775ZM94.4585 67.7956C95.3064 67.7956 95.9938 68.483 95.9938 69.331H97.1938C97.1938 67.8203 95.9691 66.5956 94.4585 66.5956V67.7956ZM95.9938 89.6167C95.9938 90.4647 95.3064 91.1521 94.4585 91.1521V92.3521C95.9691 92.3521 97.1938 91.1274 97.1938 89.6167H95.9938ZM11.18 65.1264H23.9921V63.9264H11.18V65.1264ZM24.5921 64.5264V59.7219H23.3921V64.5264H24.5921ZM23.9921 59.1219H11.18V60.3219H23.9921V59.1219ZM24.5921 59.7219V52.2482H23.3921V59.7219H24.5921ZM9.04465 52.8482H23.9921V51.6482H9.04465V52.8482ZM24.5921 52.2482V49.0452H23.3921V52.2482H24.5921ZM9.04465 49.6452H23.9921V48.4452H9.04465V49.6452ZM24.5921 49.0452V45.8422H23.3921V49.0452H24.5921ZM24.5921 45.8422V44.2407H23.3921V45.8422H24.5921ZM9.04465 46.4422H23.9921V45.2422H9.04465V46.4422ZM24.5921 44.2407C24.5921 43.7822 24.7923 43.3712 25.112 43.089L24.3179 42.1893C23.7511 42.6896 23.3921 43.4236 23.3921 44.2407H24.5921ZM25.112 43.089C25.383 42.8498 25.7376 42.7053 26.1274 42.7053V41.5053C25.4341 41.5053 24.7998 41.764 24.3179 42.1893L25.112 43.089ZM9.04465 43.2391H24.715V42.0391H9.04465V43.2391ZM24.5921 100.827V75.2032H23.3921V100.827H24.5921ZM24.5921 75.2032V64.5264H23.3921V75.2032H24.5921ZM3.17245 75.8032H23.9921V74.6031H3.17245V75.8032ZM94.4585 91.1521H54.9546V92.3521H94.4585V91.1521ZM54.3546 91.7521V100.827H55.5546V91.7521H54.3546ZM54.3546 84.2784V91.7521H55.5546V84.2784H54.3546ZM54.9546 84.8784H75.2404V83.6784H54.9546V84.8784ZM54.3546 81.0754V84.2784H55.5546V81.0754H54.3546ZM54.9546 81.6754H69.902V80.4753H54.9546V81.6754ZM54.3546 77.8723V81.0754H55.5546V77.8723H54.3546ZM54.9546 78.4723H73.105V77.2723H54.9546V78.4723ZM54.9546 75.2693H76.308V74.0693H54.9546V75.2693ZM54.3546 44.2407V67.1956H55.5546V44.2407H54.3546ZM54.3546 67.1956V74.6693H55.5546V67.1956H54.3546ZM54.9546 67.7956H94.4585V66.5956H54.9546V67.7956ZM96.5938 75.8032H100.331V74.6031H96.5938V75.8032ZM95.9938 69.331V75.2032H97.1938V69.331H95.9938ZM95.9938 75.2032V89.6167H97.1938V75.2032H95.9938ZM4.3497 4.09335L5.95121 5.69486L6.79974 4.84633L5.19823 3.24483L4.3497 4.09335ZM5.95121 5.69486L7.55272 7.29637L8.40125 6.44784L6.79974 4.84633L5.95121 5.69486ZM5.19823 7.29637L6.79974 5.69486L5.95121 4.84633L4.3497 6.44784L5.19823 7.29637ZM6.79974 5.69486L8.40125 4.09335L7.55272 3.24483L5.95121 4.84633L6.79974 5.69486ZM11.18 5.8706H14.383V4.6706H11.18V5.8706ZM20.1891 5.2706C20.1891 6.11855 19.5017 6.80594 18.6537 6.80594V8.00594C20.1644 8.00594 21.3891 6.78129 21.3891 5.2706H20.1891ZM18.6537 6.80594C17.8058 6.80594 17.1184 6.11855 17.1184 5.2706H15.9184C15.9184 6.78129 17.143 8.00594 18.6537 8.00594V6.80594ZM17.1184 5.2706C17.1184 4.42265 17.8058 3.73525 18.6537 3.73525V2.53525C17.143 2.53525 15.9184 3.75991 15.9184 5.2706H17.1184ZM18.6537 3.73525C19.5017 3.73525 20.1891 4.42265 20.1891 5.2706H21.3891C21.3891 3.75991 20.1644 2.53525 18.6537 2.53525V3.73525ZM48.4062 91.769H30.5405V92.969H48.4062V91.769ZM30.5405 91.769C29.0298 91.769 27.8051 92.9936 27.8051 94.5043H29.0051C29.0051 93.6564 29.6925 92.969 30.5405 92.969V91.769ZM27.8051 94.5043V95.572H29.0051V94.5043H27.8051ZM27.8051 95.572C27.8051 97.0827 29.0298 98.3073 30.5405 98.3073V97.1073C29.6925 97.1073 29.0051 96.4199 29.0051 95.572H27.8051ZM30.5405 98.3073H48.4062V97.1073H30.5405V98.3073ZM48.4062 98.3073C49.9169 98.3073 51.1415 97.0827 51.1415 95.572H49.9415C49.9415 96.4199 49.2541 97.1073 48.4062 97.1073V98.3073ZM51.1415 95.572V94.5043H49.9415V95.572H51.1415ZM51.1415 94.5043C51.1415 92.9936 49.9169 91.769 48.4062 91.769V92.969C49.2541 92.969 49.9415 93.6564 49.9415 94.5043H51.1415ZM54.3546 74.6693V77.8723H55.5546V74.6693H54.3546Z" fill="black"/>
</svg>
