<svg width="200" height="76" viewBox="0 0 200 76" fill="none" xmlns="http://www.w3.org/2000/svg">
<g clip-path="url(#clip0)">
<path d="M127.122 30.2112C127.122 31.2205 126.878 32.0412 126.402 32.6512C125.925 33.2723 125.248 33.5828 124.405 33.5828C123.973 33.5828 123.596 33.5163 123.274 33.3721C122.952 33.2279 122.675 33.0061 122.442 32.7177V36.1448H121.167V26.4404H122.143L122.342 27.3498C122.575 27.0171 122.853 26.762 123.196 26.5845C123.54 26.4071 123.939 26.3184 124.383 26.3184C125.248 26.3184 125.925 26.6622 126.402 27.3498C126.878 28.0374 127.122 28.9469 127.122 30.0781V30.2112ZM125.847 30.0781C125.847 29.2796 125.692 28.6252 125.381 28.1151C125.071 27.6049 124.605 27.3498 123.995 27.3498C123.629 27.3498 123.318 27.4385 123.052 27.6049C122.797 27.7713 122.586 28.0042 122.42 28.2925V31.6752C122.575 31.9636 122.786 32.1854 123.052 32.3517C123.307 32.5181 123.629 32.5957 124.006 32.5957C124.605 32.5957 125.071 32.3739 125.381 31.9303C125.692 31.4867 125.847 30.921 125.847 30.2112V30.0781Z" fill="white"/>
<path d="M132.014 27.5718L131.359 27.5385C131.026 27.5385 130.738 27.6161 130.505 27.7825C130.272 27.9378 130.095 28.1707 129.973 28.459V33.461H128.697V26.4516H129.84L129.962 27.4719C130.161 27.1059 130.405 26.8287 130.694 26.629C130.982 26.4294 131.315 26.3296 131.703 26.3296C131.803 26.3296 131.892 26.3407 131.969 26.3518C132.058 26.3629 132.124 26.385 132.18 26.3961L132.014 27.5718Z" fill="white"/>
<path d="M132.912 29.8896C132.912 28.8581 133.189 28.0042 133.755 27.3276C134.32 26.6511 135.075 26.3184 136.039 26.3184C137.015 26.3184 137.781 26.6511 138.346 27.3276C138.912 27.9931 139.189 28.8471 139.189 29.8896V30.0338C139.189 31.0763 138.912 31.9303 138.346 32.5957C137.781 33.2612 137.027 33.5939 136.051 33.5939C135.086 33.5939 134.32 33.2612 133.755 32.5957C133.189 31.9303 132.912 31.0763 132.912 30.0338V29.8896ZM134.187 30.0227C134.187 30.7658 134.343 31.3758 134.653 31.8637C134.964 32.3517 135.43 32.5846 136.051 32.5846C136.661 32.5846 137.126 32.3407 137.437 31.8637C137.747 31.3758 137.914 30.7658 137.914 30.0227V29.8785C137.914 29.1465 137.759 28.5365 137.437 28.0485C137.115 27.5605 136.649 27.3165 136.039 27.3165C135.43 27.3165 134.964 27.5605 134.653 28.0485C134.343 28.5365 134.187 29.1465 134.187 29.8785V30.0227Z" fill="white"/>
<path d="M140.52 30.0781C140.52 28.9469 140.764 28.0374 141.241 27.3498C141.718 26.6622 142.394 26.3184 143.26 26.3184C143.703 26.3184 144.091 26.4071 144.435 26.5845C144.768 26.762 145.056 27.0171 145.278 27.3609L145.433 26.4514H146.454V33.4941C146.454 34.3924 146.188 35.0801 145.666 35.5681C145.145 36.045 144.391 36.289 143.404 36.289C143.071 36.289 142.705 36.2446 142.317 36.1448C141.929 36.0561 141.585 35.923 141.285 35.7677L141.474 34.7806C141.718 34.9137 142.017 35.0135 142.361 35.0912C142.705 35.1688 143.049 35.2132 143.393 35.2132C144.014 35.2132 144.468 35.069 144.746 34.7917C145.023 34.5034 145.167 34.0819 145.167 33.4941V32.6956C144.934 32.9839 144.668 33.2168 144.346 33.361C144.025 33.5163 143.659 33.5828 143.237 33.5828C142.383 33.5828 141.718 33.2723 141.23 32.6512C140.753 32.0301 140.509 31.2205 140.509 30.2112V30.0781H140.52ZM141.796 30.2112C141.796 30.921 141.94 31.4867 142.228 31.9081C142.516 32.3407 142.96 32.5514 143.57 32.5514C143.958 32.5514 144.28 32.4627 144.535 32.2852C144.79 32.1077 145.012 31.8637 145.178 31.5421V28.3147C145.012 28.0152 144.801 27.7823 144.535 27.6049C144.269 27.4274 143.958 27.3387 143.581 27.3387C142.971 27.3387 142.528 27.5938 142.228 28.0929C141.94 28.6031 141.796 29.2574 141.796 30.067V30.2112Z" fill="white"/>
<path d="M151.611 27.5718L150.957 27.5385C150.624 27.5385 150.335 27.6161 150.103 27.7825C149.87 27.9378 149.692 28.1707 149.57 28.459V33.461H148.295V26.4516H149.437L149.559 27.4719C149.759 27.1059 150.003 26.8287 150.291 26.629C150.579 26.4294 150.912 26.3296 151.3 26.3296C151.4 26.3296 151.489 26.3407 151.567 26.3518C151.655 26.3629 151.722 26.385 151.777 26.3961L151.611 27.5718Z" fill="white"/>
<path d="M157.245 33.4497C157.201 33.239 157.167 33.0505 157.145 32.8841C157.123 32.7177 157.112 32.5625 157.101 32.3961C156.868 32.7288 156.557 33.0172 156.169 33.239C155.781 33.4608 155.371 33.5828 154.938 33.5828C154.206 33.5828 153.652 33.3943 153.275 33.0283C152.886 32.6512 152.698 32.141 152.698 31.4867C152.698 30.8212 152.964 30.2889 153.507 29.9118C154.051 29.5347 154.783 29.3461 155.715 29.3461H157.101V28.6474C157.101 28.2371 156.979 27.9154 156.724 27.6714C156.469 27.4274 156.125 27.3165 155.659 27.3165C155.249 27.3165 154.916 27.4163 154.65 27.6271C154.395 27.8378 154.273 28.0818 154.273 28.3702L153.064 28.3812L153.053 28.348C153.019 27.8378 153.263 27.372 153.774 26.9505C154.284 26.5291 154.938 26.3184 155.737 26.3184C156.535 26.3184 157.167 26.518 157.655 26.9284C158.143 27.3276 158.376 27.9154 158.376 28.6696V32.0412C158.376 32.2963 158.387 32.5292 158.41 32.7621C158.432 32.995 158.487 33.2279 158.554 33.4497H157.245ZM155.127 32.5181C155.593 32.5181 156.003 32.3961 156.38 32.1632C156.757 31.9303 156.99 31.653 157.101 31.3425V30.2001H155.67C155.16 30.2001 154.75 30.3332 154.439 30.5883C154.129 30.8434 153.973 31.1539 153.973 31.4978C153.973 31.8083 154.073 32.0523 154.262 32.2408C154.45 32.4294 154.739 32.5181 155.127 32.5181Z" fill="white"/>
<path d="M161.371 26.4405L161.46 27.361C161.692 27.0283 161.981 26.7732 162.325 26.5846C162.68 26.3961 163.09 26.3074 163.556 26.3074C164.022 26.3074 164.421 26.4183 164.754 26.629C165.086 26.8508 165.341 27.1725 165.508 27.605C165.729 27.2057 166.029 26.8841 166.384 26.6512C166.75 26.4183 167.171 26.3074 167.648 26.3074C168.358 26.3074 168.924 26.5514 169.334 27.0394C169.744 27.5274 169.955 28.2704 169.955 29.2464V33.4387H168.68V29.2353C168.68 28.5477 168.558 28.0597 168.325 27.7714C168.092 27.483 167.737 27.3388 167.26 27.3388C166.827 27.3388 166.473 27.4941 166.206 27.7935C165.94 28.093 165.774 28.4812 165.729 28.9359V28.9913V33.4387H164.443V29.2353C164.443 28.581 164.321 28.093 164.077 27.7935C163.833 27.4941 163.478 27.3388 163.023 27.3388C162.635 27.3388 162.314 27.4165 162.07 27.5828C161.814 27.7381 161.626 27.971 161.493 28.2594V33.4498H160.217V26.4405H161.371Z" fill="white"/>
<path d="M172.961 26.4405L173.049 27.361C173.282 27.0283 173.571 26.7732 173.914 26.5846C174.269 26.3961 174.68 26.3074 175.146 26.3074C175.611 26.3074 176.011 26.4183 176.343 26.629C176.676 26.8508 176.931 27.1725 177.098 27.605C177.319 27.2057 177.619 26.8841 177.974 26.6512C178.34 26.4183 178.761 26.3074 179.238 26.3074C179.948 26.3074 180.514 26.5514 180.924 27.0394C181.334 27.5274 181.545 28.2704 181.545 29.2464V33.4387H180.27V29.2353C180.27 28.5477 180.148 28.0597 179.915 27.7714C179.682 27.483 179.327 27.3388 178.85 27.3388C178.417 27.3388 178.062 27.4941 177.796 27.7935C177.53 28.093 177.364 28.4812 177.319 28.9359V28.9913V33.4387H176.033V29.2353C176.033 28.581 175.911 28.093 175.667 27.7935C175.423 27.4941 175.068 27.3388 174.613 27.3388C174.225 27.3388 173.903 27.4165 173.659 27.5828C173.404 27.7381 173.216 27.971 173.083 28.2594V33.4498H171.807V26.4405H172.961Z" fill="white"/>
<path d="M184.795 24.6548H183.519V23.3572H184.795V24.6548ZM184.795 33.4498H183.519V26.4404H184.795V33.4498Z" fill="white"/>
<path d="M187.9 26.4405L187.989 27.483C188.222 27.1059 188.51 26.8175 188.865 26.6179C189.22 26.4183 189.619 26.3074 190.063 26.3074C190.817 26.3074 191.405 26.5292 191.815 26.9728C192.225 27.4165 192.436 28.1041 192.436 29.0246V33.4498H191.161V29.0579C191.161 28.4368 191.039 28.0043 190.795 27.7381C190.551 27.483 190.174 27.3499 189.674 27.3499C189.286 27.3499 188.954 27.4275 188.676 27.5828C188.399 27.7381 188.188 27.9599 188.022 28.2483V33.4498H186.747V26.4405H187.9Z" fill="white"/>
<path d="M194.078 30.0781C194.078 28.9469 194.321 28.0374 194.798 27.3498C195.275 26.6622 195.952 26.3184 196.817 26.3184C197.261 26.3184 197.649 26.4071 197.993 26.5845C198.325 26.762 198.614 27.0171 198.835 27.3609L198.991 26.4514H200.011V33.4941C200.011 34.3924 199.745 35.0801 199.224 35.5681C198.702 36.045 197.948 36.289 196.961 36.289C196.628 36.289 196.262 36.2446 195.874 36.1448C195.486 36.0561 195.142 35.923 194.843 35.7677L195.031 34.7806C195.275 34.9137 195.575 35.0135 195.919 35.0912C196.262 35.1688 196.606 35.2132 196.95 35.2132C197.571 35.2132 198.026 35.069 198.303 34.7917C198.58 34.5034 198.725 34.0819 198.725 33.4941V32.6956C198.492 32.9839 198.225 33.2168 197.904 33.361C197.582 33.5163 197.216 33.5828 196.795 33.5828C195.941 33.5828 195.275 33.2723 194.787 32.6512C194.31 32.0301 194.066 31.2205 194.066 30.2112V30.0781H194.078ZM195.353 30.2112C195.353 30.921 195.497 31.4867 195.785 31.9081C196.074 32.3407 196.517 32.5514 197.127 32.5514C197.516 32.5514 197.837 32.4627 198.092 32.2852C198.347 32.1077 198.569 31.8637 198.736 31.5421V28.3147C198.569 28.0152 198.359 27.7823 198.092 27.6049C197.826 27.4274 197.516 27.3387 197.139 27.3387C196.529 27.3387 196.085 27.5938 195.785 28.0929C195.497 28.6031 195.353 29.2574 195.353 30.067V30.2112Z" fill="white"/>
<path d="M125.459 48.7107C125.415 48.5 125.381 48.3114 125.359 48.1451C125.337 47.9787 125.326 47.8235 125.315 47.6571C125.082 47.9898 124.771 48.2782 124.383 48.5C123.995 48.7218 123.585 48.8438 123.152 48.8438C122.42 48.8438 121.865 48.6553 121.488 48.2893C121.1 47.9122 120.912 47.402 120.912 46.7476C120.912 46.0822 121.178 45.5498 121.721 45.1728C122.265 44.7957 122.997 44.6071 123.928 44.6071H125.315V43.9084C125.315 43.498 125.193 43.1764 124.938 42.9324C124.683 42.6884 124.339 42.5775 123.873 42.5775C123.463 42.5775 123.13 42.6773 122.864 42.8881C122.609 43.0988 122.487 43.3428 122.487 43.6311L121.278 43.6422L121.267 43.609C121.233 43.0988 121.477 42.633 121.987 42.2115C122.498 41.7901 123.152 41.5793 123.951 41.5793C124.749 41.5793 125.381 41.779 125.869 42.1893C126.357 42.5886 126.59 43.1764 126.59 43.9306V47.3022C126.59 47.5573 126.601 47.7902 126.623 48.0231C126.646 48.256 126.701 48.4889 126.768 48.7107H125.459ZM123.341 47.768C123.806 47.768 124.217 47.646 124.594 47.4131C124.971 47.1802 125.204 46.9029 125.315 46.5924V45.45H123.884C123.374 45.45 122.963 45.5831 122.653 45.8382C122.342 46.0933 122.187 46.4038 122.187 46.7476C122.187 47.0582 122.287 47.3022 122.475 47.4907C122.675 47.6793 122.963 47.768 123.341 47.768Z" fill="white"/>
<path d="M131.237 47.8456C131.625 47.8456 131.969 47.7125 132.269 47.4574C132.557 47.1912 132.712 46.8807 132.712 46.4925H133.866L133.888 46.5258C133.91 47.1358 133.644 47.6681 133.112 48.134C132.579 48.5998 131.958 48.8327 131.248 48.8327C130.261 48.8327 129.507 48.5 128.964 47.8345C128.431 47.1691 128.165 46.3262 128.165 45.3391V45.0618C128.165 44.0747 128.431 43.2429 128.975 42.5664C129.507 41.8899 130.272 41.5571 131.248 41.5571C132.036 41.5571 132.668 41.8011 133.167 42.278C133.666 42.766 133.91 43.3538 133.888 44.0636L133.877 44.0969H132.723C132.723 43.6644 132.579 43.3095 132.302 43.01C132.025 42.7106 131.67 42.5553 131.248 42.5553C130.627 42.5553 130.161 42.7993 129.873 43.2873C129.585 43.7753 129.44 44.3631 129.44 45.0507V45.328C129.44 46.0378 129.585 46.6256 129.862 47.1136C130.139 47.6016 130.594 47.8456 131.237 47.8456Z" fill="white"/>
<path d="M139.699 48.7107C139.655 48.5 139.622 48.3114 139.6 48.1451C139.577 47.9787 139.566 47.8235 139.555 47.6571C139.322 47.9898 139.012 48.2782 138.624 48.5C138.235 48.7218 137.825 48.8438 137.393 48.8438C136.661 48.8438 136.106 48.6553 135.729 48.2893C135.341 47.9122 135.152 47.402 135.152 46.7476C135.152 46.0822 135.418 45.5498 135.962 45.1728C136.505 44.7957 137.237 44.6071 138.169 44.6071H139.555V43.9084C139.555 43.498 139.433 43.1764 139.178 42.9324C138.923 42.6884 138.579 42.5775 138.113 42.5775C137.703 42.5775 137.37 42.6773 137.104 42.8881C136.849 43.0988 136.727 43.3428 136.727 43.6311L135.518 43.6422L135.507 43.609C135.474 43.0988 135.718 42.633 136.228 42.2115C136.738 41.7901 137.393 41.5793 138.191 41.5793C138.99 41.5793 139.622 41.779 140.11 42.1893C140.598 42.5886 140.831 43.1764 140.831 43.9306V47.3022C140.831 47.5573 140.842 47.7902 140.864 48.0231C140.886 48.256 140.942 48.4889 141.008 48.7107H139.699ZM137.581 47.768C138.047 47.768 138.457 47.646 138.834 47.4131C139.211 47.1802 139.444 46.9029 139.555 46.5924V45.45H138.125C137.614 45.45 137.204 45.5831 136.893 45.8382C136.583 46.0933 136.428 46.4038 136.428 46.7476C136.428 47.0582 136.527 47.3022 136.716 47.4907C136.916 47.6793 137.204 47.768 137.581 47.768Z" fill="white"/>
<path d="M142.394 45.328C142.394 44.1968 142.638 43.2873 143.115 42.5997C143.592 41.9121 144.269 41.5683 145.134 41.5683C145.544 41.5683 145.91 41.6459 146.221 41.7901C146.542 41.9454 146.809 42.1672 147.03 42.4555V38.5959H148.306V48.6996H147.33L147.141 47.8124C146.908 48.1451 146.631 48.4002 146.287 48.5776C145.955 48.7551 145.555 48.8327 145.112 48.8327C144.258 48.8327 143.592 48.5222 143.104 47.9011C142.616 47.28 142.383 46.4704 142.383 45.4611V45.328H142.394ZM143.67 45.4722C143.67 46.182 143.814 46.7477 144.102 47.1691C144.391 47.5906 144.846 47.8013 145.444 47.8013C145.822 47.8013 146.143 47.7126 146.398 47.5462C146.653 47.3688 146.875 47.1358 147.03 46.8253V43.5535C146.864 43.2652 146.653 43.0323 146.398 42.8659C146.132 42.6995 145.822 42.6108 145.456 42.6108C144.846 42.6108 144.391 42.8659 144.102 43.365C143.814 43.8752 143.67 44.5295 143.67 45.3391V45.4722Z" fill="white"/>
<path d="M153.13 48.8437C152.121 48.8437 151.345 48.522 150.779 47.8788C150.213 47.2355 149.936 46.3926 149.936 45.339V45.0506C149.936 44.0414 150.225 43.2095 150.812 42.5552C151.389 41.9008 152.099 41.5681 152.942 41.5681C153.885 41.5681 154.583 41.8565 155.049 42.4443C155.515 43.0321 155.748 43.7974 155.748 44.7733V45.4499H151.267L151.234 45.4721C151.234 46.1708 151.389 46.7475 151.7 47.18C152.01 47.6237 152.487 47.8344 153.119 47.8344C153.552 47.8344 153.929 47.7789 154.262 47.6459C154.583 47.5239 154.861 47.3575 155.105 47.1357L155.604 47.9675C155.349 48.2115 155.027 48.4111 154.617 48.5775C154.195 48.7549 153.707 48.8437 153.13 48.8437ZM152.931 42.5774C152.487 42.5774 152.121 42.7437 151.822 43.0876C151.533 43.4314 151.356 43.875 151.289 44.4074L151.3 44.4406H154.461V44.3408C154.461 43.8306 154.339 43.4092 154.084 43.0765C153.84 42.7326 153.452 42.5774 152.931 42.5774Z" fill="white"/>
<path d="M158.31 41.7012L158.398 42.6217C158.631 42.289 158.92 42.0339 159.264 41.8454C159.618 41.6568 160.029 41.5681 160.495 41.5681C160.96 41.5681 161.36 41.679 161.692 41.8897C162.025 42.1116 162.28 42.4332 162.447 42.8657C162.668 42.4665 162.968 42.1448 163.323 41.9119C163.678 41.679 164.11 41.5681 164.587 41.5681C165.297 41.5681 165.863 41.8121 166.273 42.3001C166.683 42.7881 166.894 43.5312 166.894 44.5072V48.6995H165.619V44.4961C165.619 43.8085 165.497 43.3205 165.264 43.0321C165.031 42.7437 164.676 42.5996 164.199 42.5996C163.766 42.5996 163.412 42.7548 163.134 43.0543C162.868 43.3537 162.702 43.7419 162.657 44.1966V44.2521V48.6995H161.371V44.4961C161.371 43.8417 161.249 43.3537 161.005 43.0543C160.761 42.7548 160.406 42.5996 159.951 42.5996C159.563 42.5996 159.241 42.6772 158.997 42.8436C158.753 43.0099 158.554 43.2317 158.421 43.5201V48.7106H157.145V41.7012H158.31Z" fill="white"/>
<path d="M170.909 46.1043L171.131 46.9805H171.164L172.883 41.6902H174.303L171.353 49.7754C171.175 50.2412 170.92 50.6515 170.587 51.0064C170.255 51.3503 169.811 51.5277 169.245 51.5277C169.145 51.5277 169.012 51.5166 168.846 51.4944C168.691 51.4723 168.558 51.4501 168.48 51.4279L168.613 50.4297C168.591 50.4297 168.669 50.4297 168.846 50.4408C169.023 50.4519 169.134 50.463 169.19 50.463C169.467 50.463 169.689 50.341 169.855 50.097C170.033 49.853 170.177 49.5868 170.288 49.2985L170.587 48.5665L167.981 41.7013H169.401L170.909 46.1043Z" fill="white"/>
<path d="M6.98719 39.7827L4.60267 42.3558V48.733H0V26.4294H4.59158V36.5331L6.6101 33.7604L12.2886 26.4294H17.9449L10.0261 36.3335L18.1778 48.7219H12.71L6.98719 39.7827Z" fill="white"/>
<path d="M79.4432 30.1447H72.6113V48.7218H68.0197V30.1447H61.2766V26.4182H79.4432V30.1447Z" fill="white"/>
<path d="M96.5452 15.4496L91.9869 20.0079L93.7171 23.4682L90.9555 26.2298L83.0367 8.92818L85.4434 6.52148L102.778 14.4181L100.017 17.1797L96.5452 15.4496ZM90.5895 17.2019L93.7393 14.0521L87.4286 10.9134L90.5895 17.2019Z" fill="white"/>
<path d="M47.1247 51.6166L49.8863 48.855L57.7829 66.1899L55.3762 68.5966L38.0635 60.6777L40.8251 57.9161L44.2855 59.6463L48.8438 55.088L47.1247 51.6166ZM53.3799 64.2046L50.2412 57.894L47.0914 61.0437L53.3799 64.2046Z" fill="white"/>
<path d="M74.3082 3.85959V8.69517L77.0698 9.6157V12.5437L63.6943 7.56391V5.01303L77.0698 0V2.92797L74.3082 3.85959ZM72.079 7.95209V4.60267L67.0659 6.28847L72.079 7.95209Z" fill="white"/>
<path d="M50.5407 10.6027L52.8143 12.8763L54.5445 12.0112L55.9308 13.3976L47.28 17.357L46.0711 16.1481L50.0194 7.4751L51.3947 8.87254L50.5407 10.6027ZM51.4169 13.5861L49.842 12.0112L48.2782 15.161L51.4169 13.5861Z" fill="white"/>
<path d="M105.385 44.1302H97.3327L95.8021 48.7218H90.9111L99.207 26.4182H103.466L111.806 48.7218H106.926L105.385 44.1302ZM98.5637 40.4037H104.142L101.336 32.0634L98.5637 40.4037Z" fill="white"/>
<path d="M35.3685 31.021H43.4204L44.951 26.4294H49.842L41.5461 48.733H37.2872L28.947 26.4294H33.8269L35.3685 31.021ZM42.1894 34.7364H36.6107L39.4167 43.0767L42.1894 34.7364Z" fill="white"/>
<path d="M66.4448 71.2693V66.4337L63.6832 65.5132V62.5852L77.0587 67.565V70.1158L63.6832 75.1178V72.2009L66.4448 71.2693ZM68.6741 67.1768V70.5262L73.676 68.8404L68.6741 67.1768Z" fill="white"/>
<path d="M90.1347 64.4706L87.8611 62.197L86.131 63.0621L84.7446 61.6757L93.3954 57.7163L94.6043 58.9252L90.656 67.5982L89.2697 66.2118L90.1347 64.4706ZM89.2586 61.4872L90.8335 63.0621L92.3973 59.9123L89.2586 61.4872Z" fill="white"/>
</g>
<defs>
<clipPath id="clip0">
<rect width="200" height="75.1289" fill="white"/>
</clipPath>
</defs>
</svg>
