<svg width="77" height="58" viewBox="0 0 77 58" fill="none" xmlns="http://www.w3.org/2000/svg">
<path d="M20.5434 41.0868C15.4075 41.0868 11.2988 36.9781 11.2988 31.8422C11.2988 26.7063 15.4075 22.5977 20.5434 22.5977C21.8787 22.5977 23.214 22.9058 24.3439 23.4194L23.5222 25.2683C22.5977 24.8574 21.5706 24.652 20.5434 24.652C16.5374 24.652 13.3532 27.8362 13.3532 31.8422C13.3532 35.8482 16.5374 39.0324 20.5434 39.0324C24.5494 39.0324 27.7336 35.8482 27.7336 31.8422C27.7336 31.3286 27.7336 30.815 27.6309 30.4042L29.6852 29.9933C29.7879 30.6096 29.8907 31.2259 29.8907 31.8422C29.7879 36.9781 25.6792 41.0868 20.5434 41.0868Z" fill="white"/>
<path d="M20.6462 36.7724L15.5104 31.7393L16.9484 30.3012L20.3381 33.5882L27.9392 23.0083L29.5826 24.2409L20.6462 36.7724Z" fill="white"/>
<path d="M62.657 36.978H44.1679V39.0324H62.657V36.978Z" fill="black"/>
<path d="M65.7389 57.5217H64.7117V18.4891H65.7389C70.2584 18.4891 73.9563 14.7913 73.9563 10.2717C73.9563 5.75217 70.2584 2.05435 65.7389 2.05435H18.4889V8.21738H16.4346V0H65.7389C71.3883 0 76.0106 4.62228 76.0106 10.2717V47.25C76.0106 52.8994 71.3883 57.5217 65.7389 57.5217ZM66.766 20.5435V55.4673C70.772 54.9538 73.9563 51.4614 73.9563 47.3527V16.5375C72.3128 18.6945 69.7448 20.2353 66.766 20.5435Z" fill="black"/>
<path d="M35.9511 46.2225H6.16304C2.77337 46.2225 0 43.4492 0 40.0595V16.4345C0 13.0449 2.77337 10.2715 6.16304 10.2715H35.9511C39.3407 10.2715 42.1141 13.0449 42.1141 16.4345V40.0595C42.1141 43.4492 39.3407 46.2225 35.9511 46.2225ZM6.16304 12.3258C3.90326 12.3258 2.05435 14.1747 2.05435 16.4345V40.0595C2.05435 42.3193 3.90326 44.1682 6.16304 44.1682H35.9511C38.2108 44.1682 40.0597 42.3193 40.0597 40.0595V16.4345C40.0597 14.1747 38.2108 12.3258 35.9511 12.3258H6.16304Z" fill="black"/>
<path d="M41.0871 17.4619H1.02734V19.5163H41.0871V17.4619Z" fill="black"/>
<path d="M60.6033 10.2715H46.2229V12.3258H60.6033V10.2715Z" fill="white"/>
<path d="M60.6031 17.4614H46.2226V19.5158H60.6031V17.4614Z" fill="white"/>
<path d="M60.6031 24.6519H46.2226V26.7062H60.6031V24.6519Z" fill="white"/>
</svg>
