<svg width="20" height="20" viewBox="0 0 20 20" fill="none" xmlns="http://www.w3.org/2000/svg">
<circle cx="10" cy="10" r="10" fill="white"/>
<path d="M14.9943 12.8918C14.9705 12.7444 14.8781 12.6183 14.7396 12.5435L12.6918 11.3365L12.6749 11.3271C12.589 11.2841 12.4942 11.2621 12.3982 11.2628C12.2266 11.2628 12.0628 11.3278 11.949 11.4419L11.3446 12.0467C11.3188 12.0713 11.2345 12.1069 11.2089 12.1082C11.2019 12.1076 10.5056 12.0575 9.22375 10.7751C7.94418 9.49543 7.88989 8.79681 7.88946 8.79681C7.89018 8.76108 7.92532 8.67706 7.95032 8.65105L8.46575 8.13562C8.64732 7.95356 8.70175 7.65176 8.59403 7.41798L7.45574 5.27551C7.37303 5.10517 7.21232 5 7.03403 5C6.90789 5 6.78617 5.0523 6.69103 5.14733L5.28602 6.54959C5.15131 6.68363 5.03531 6.91798 5.01002 7.10661C4.99774 7.19677 4.74845 9.34911 7.69846 12.3004C10.2029 14.8052 12.1558 14.9999 12.695 14.9999C12.7607 15.0007 12.8264 14.9973 12.8916 14.9897C13.0796 14.9646 13.3136 14.8488 13.4475 14.7146L14.8513 13.3105C14.9659 13.1954 15.0182 13.0432 14.9943 12.8918Z" fill="black"/>
</svg>
