<svg width="112" height="76" viewBox="0 0 112 76" fill="none" xmlns="http://www.w3.org/2000/svg">
<path d="M6.98719 39.7827L4.60267 42.3558V48.733H0V26.4294H4.59158V36.5331L6.6101 33.7604L12.2886 26.4294H17.9449L10.0261 36.3335L18.1778 48.7219H12.71L6.98719 39.7827Z" fill="white"/>
<path d="M79.4432 30.1447H72.6113V48.7218H68.0197V30.1447H61.2766V26.4182H79.4432V30.1447Z" fill="white"/>
<path d="M96.5452 15.4496L91.9869 20.0079L93.7171 23.4682L90.9555 26.2298L83.0367 8.92818L85.4434 6.52148L102.778 14.4181L100.017 17.1797L96.5452 15.4496ZM90.5895 17.2019L93.7393 14.0521L87.4286 10.9134L90.5895 17.2019Z" fill="white"/>
<path d="M47.1247 51.6166L49.8863 48.855L57.7829 66.1899L55.3762 68.5966L38.0635 60.6777L40.8251 57.9161L44.2855 59.6463L48.8438 55.088L47.1247 51.6166ZM53.3799 64.2046L50.2412 57.894L47.0914 61.0437L53.3799 64.2046Z" fill="white"/>
<path d="M74.3082 3.85959V8.69517L77.0698 9.6157V12.5437L63.6943 7.56391V5.01303L77.0698 0V2.92797L74.3082 3.85959ZM72.079 7.95209V4.60267L67.0659 6.28847L72.079 7.95209Z" fill="white"/>
<path d="M50.5407 10.6027L52.8143 12.8763L54.5445 12.0112L55.9308 13.3976L47.28 17.357L46.0711 16.1481L50.0194 7.4751L51.3947 8.87254L50.5407 10.6027ZM51.4169 13.5861L49.842 12.0112L48.2782 15.161L51.4169 13.5861Z" fill="white"/>
<path d="M105.385 44.1302H97.3327L95.8021 48.7218H90.9111L99.207 26.4182H103.466L111.806 48.7218H106.926L105.385 44.1302ZM98.5637 40.4037H104.142L101.336 32.0634L98.5637 40.4037Z" fill="white"/>
<path d="M35.3685 31.021H43.4204L44.951 26.4294H49.842L41.5461 48.733H37.2872L28.947 26.4294H33.8269L35.3685 31.021ZM42.1894 34.7364H36.6107L39.4167 43.0767L42.1894 34.7364Z" fill="white"/>
<path d="M66.4448 71.2693V66.4337L63.6832 65.5132V62.5852L77.0587 67.565V70.1158L63.6832 75.1178V72.2009L66.4448 71.2693ZM68.6741 67.1768V70.5262L73.676 68.8404L68.6741 67.1768Z" fill="white"/>
<path d="M90.1347 64.4706L87.8611 62.197L86.131 63.0621L84.7446 61.6757L93.3954 57.7163L94.6043 58.9252L90.656 67.5982L89.2697 66.2118L90.1347 64.4706ZM89.2586 61.4872L90.8335 63.0621L92.3973 59.9123L89.2586 61.4872Z" fill="white"/>
</svg>
