<svg width="21" height="20" viewBox="0 0 21 20" fill="none" xmlns="http://www.w3.org/2000/svg">
<path d="M10.2305 0C4.70781 0 0.233826 4.47613 0.233826 10C0.233826 15.5239 4.70846 20 10.2305 20C15.7532 20 20.2271 15.5239 20.2271 10C20.2271 4.47613 15.7525 0 10.2305 0ZM15.1405 6.85097L13.4997 14.5852C13.3785 15.1335 13.0521 15.2665 12.5968 15.0084L10.0976 13.1658L8.89222 14.3271C8.75936 14.46 8.6465 14.5729 8.38852 14.5729L8.56588 12.0284L13.1972 7.84258C13.3991 7.66516 13.1527 7.56452 12.8864 7.74194L7.16248 11.3465L4.69556 10.5761C4.15961 10.4071 4.14736 10.04 4.80843 9.78193L14.4465 6.06387C14.8941 5.90258 15.2849 6.1729 15.1398 6.85032L15.1405 6.85097Z" fill="white"/>
</svg>
