<svg width="84" height="75" viewBox="0 0 84 75" fill="none" xmlns="http://www.w3.org/2000/svg">
<path d="M73.9567 70.8751H71.9023V58.5491H74.9838V60.6034H73.9567V70.8751Z" fill="black"/>
<path d="M55.468 66.7665H53.4136V60.6034H52.3865V58.5491H55.468V66.7665Z" fill="black"/>
<path d="M80.1198 70.8753H78.0655V56.4948C78.0655 49.9209 73.7513 45.1959 67.7937 45.1959H59.5763C52.797 45.1959 50.3318 51.2563 50.3318 56.4948V58.5492H48.2774V56.4948C48.2774 48.4829 52.797 43.1416 59.5763 43.1416H67.7937C74.7785 43.1416 80.1198 48.8938 80.1198 56.4948V70.8753Z" fill="black"/>
<path d="M63.6849 41.0871C59.3707 41.0871 56.4946 37.8002 56.4946 32.8697C56.4946 27.9393 59.3707 24.6523 63.6849 24.6523C67.999 24.6523 70.8751 27.9393 70.8751 32.8697C70.8751 37.8002 67.999 41.0871 63.6849 41.0871ZM63.6849 26.7067C59.8843 26.7067 58.549 29.9936 58.549 32.8697C58.549 35.7458 59.8843 39.0328 63.6849 39.0328C67.4854 39.0328 68.8207 35.7458 68.8207 32.8697C68.8207 29.9936 67.4854 26.7067 63.6849 26.7067Z" fill="black"/>
<path d="M64.7133 52.3862H62.6589V54.4406H64.7133V52.3862Z" fill="black"/>
<path d="M64.7125 58.5493H62.6582V60.6037H64.7125V58.5493Z" fill="black"/>
<path d="M64.7125 64.7122H62.6582V66.7665H64.7125V64.7122Z" fill="black"/>
<path d="M83.2012 69.8477H11.2991V71.902H83.2012V69.8477Z" fill="black"/>
<path d="M49.3045 67.7933H19.5165C19.1057 67.7933 18.7975 67.5879 18.5921 67.177L10.3747 49.7151C10.272 49.4069 10.272 48.9961 10.4774 48.6879C10.6828 48.3798 10.991 48.1743 11.2991 48.1743H41.0872C41.498 48.1743 41.8062 48.3797 42.0116 48.7906L50.229 66.2526C50.3317 66.5607 50.3317 66.9716 50.1263 67.2797C50.0236 67.5879 49.7154 67.7933 49.3045 67.7933ZM20.2355 65.739H47.7638L40.4709 50.3314H12.9426L20.2355 65.739Z" fill="white"/>
<path d="M59.5766 71.9021H19.5168C18.9005 71.9021 18.4897 71.4912 18.4897 70.8749V66.7662C18.4897 66.1499 18.9005 65.739 19.5168 65.739H59.5766C60.1929 65.739 60.6038 66.1499 60.6038 66.7662V70.8749C60.6038 71.4912 60.1929 71.9021 59.5766 71.9021ZM20.544 69.8477H58.5494V67.7934H20.544V69.8477Z" fill="white"/>
<path d="M8.21728 74.9836H6.16293V35.9511H5.13576V33.8967H8.21728V74.9836Z" fill="black"/>
<path d="M24.6521 46.2228H22.5977V33.8967H25.6793V35.9511H24.6521V46.2228Z" fill="black"/>
<path d="M4.10869 52.386H0V31.8425C0 24.2414 5.3413 18.4893 12.3261 18.4893H18.4891C25.4739 18.4893 30.8152 24.2414 30.8152 31.8425V46.2229H28.7608V31.8425C28.7608 25.2686 24.4467 20.5436 18.4891 20.5436H12.3261C6.36847 20.5436 2.05435 25.2686 2.05435 31.8425V50.3316H4.10869V52.386Z" fill="black"/>
<path d="M15.4074 16.4348C11.0933 16.4348 8.21721 13.1478 8.21721 8.21738C8.21721 3.28695 11.0933 0 15.4074 0C19.7215 0 22.5976 3.28695 22.5976 8.21738C22.5976 13.1478 19.7215 16.4348 15.4074 16.4348ZM15.4074 2.05435C11.6069 2.05435 10.2716 5.3413 10.2716 8.21738C10.2716 11.0935 11.6069 14.3804 15.4074 14.3804C19.208 14.3804 20.5433 11.0935 20.5433 8.21738C20.5433 5.3413 19.208 2.05435 15.4074 2.05435Z" fill="black"/>
<path d="M16.435 27.7334H14.3806V29.7877H16.435V27.7334Z" fill="black"/>
<path d="M16.4347 33.8965H14.3803V35.9508H16.4347V33.8965Z" fill="black"/>
<path d="M16.4347 40.0598H14.3803V42.1142H16.4347V40.0598Z" fill="black"/>
</svg>
