<svg width="21" height="20" viewBox="0 0 21 20" fill="none" xmlns="http://www.w3.org/2000/svg">
<path d="M13.4765 0H7.33935C1.7389 0 0.411255 1.32808 0.411255 6.93041V13.0696C0.411255 18.6719 1.7389 20 7.33935 20H13.4765C19.0769 20 20.4046 18.6719 20.4046 13.0696V6.93041C20.4046 1.32808 19.0638 0 13.4765 0ZM16.5516 14.2671H15.1003C14.5505 14.2671 14.3811 13.8308 13.3921 12.8283C12.5331 11.9953 12.1526 11.8846 11.9408 11.8846C11.6415 11.8846 11.5566 11.969 11.5566 12.3796V13.6914C11.5566 14.0433 11.446 14.2546 10.5151 14.2546C8.97563 14.2546 7.2675 13.3233 6.06981 11.5884C4.2636 9.04597 3.7694 7.14165 3.7694 6.74791C3.7694 6.53605 3.85375 6.33793 4.26047 6.33793H5.71494C6.08293 6.33793 6.22288 6.5073 6.36595 6.90103C7.08507 8.97785 8.28275 10.7972 8.77695 10.7972C8.95938 10.7972 9.04373 10.7128 9.04373 10.2472V8.10225C8.98812 7.1129 8.46769 7.02791 8.46769 6.67667C8.46769 6.5073 8.60764 6.33793 8.83193 6.33793H11.1192C11.4285 6.33793 11.5422 6.5073 11.5422 6.87166V9.76532C11.5422 10.0778 11.6821 10.1884 11.7665 10.1884C11.9489 10.1884 12.1051 10.0778 12.4431 9.73907C13.4877 8.56723 14.2362 6.76041 14.2362 6.76041C14.3337 6.54855 14.503 6.35043 14.871 6.35043H16.3254C16.7615 6.35043 16.859 6.5748 16.7615 6.88729C16.5791 7.73351 14.7991 10.2466 14.7991 10.2466C14.6461 10.5003 14.5873 10.6109 14.7991 10.894C14.9553 11.1059 15.4633 11.5453 15.8013 11.939C16.4229 12.6452 16.9009 13.2377 17.0283 13.6477C17.1714 14.0546 16.9602 14.2664 16.5497 14.2664L16.5516 14.2671Z" fill="white"/>
</svg>
