<svg width="120" height="120" viewBox="0 0 120 120" fill="none" xmlns="http://www.w3.org/2000/svg">
<path d="M19.5562 101.471H22.1241V86.0846H18.2723V88.649H19.5562V101.471Z" fill="#8C9EFB"/>
<path d="M42.6666 96.342H45.2344V88.649H46.5184V86.0846H42.6666V96.342Z" fill="#8C9EFB"/>
<path d="M11.8524 101.471H14.4203V83.5201C14.4203 75.3142 19.8128 69.4162 27.2597 69.4162H37.5311C46.0051 69.4162 49.0866 76.981 49.0866 83.5201V86.0845H51.6544V83.5201C51.6544 73.5191 46.0051 66.8518 37.5311 66.8518H27.2597C18.5289 66.8518 11.8524 74.032 11.8524 83.5201V101.471Z" fill="#8C9EFB"/>
<path d="M32.3958 64.2875C37.7883 64.2875 41.3833 60.1845 41.3833 54.03C41.3833 47.8756 37.7883 43.7726 32.3958 43.7726C27.0032 43.7726 23.4082 47.8756 23.4082 54.03C23.4082 60.1845 27.0032 64.2875 32.3958 64.2875ZM32.3958 46.3369C37.1463 46.3369 38.8155 50.4399 38.8155 54.03C38.8155 57.6201 37.1463 61.7231 32.3958 61.7231C27.6452 61.7231 25.9761 57.6201 25.9761 54.03C25.9761 50.4399 27.6452 46.3369 32.3958 46.3369Z" fill="#8C9EFB"/>
<path d="M31.1105 78.3916H33.6784V80.956H31.1105V78.3916Z" fill="#8C9EFB"/>
<path d="M31.1111 86.0848H33.679V88.6492H31.1111V86.0848Z" fill="#8C9EFB"/>
<path d="M31.1111 93.7778H33.679V96.3422H31.1111V93.7778Z" fill="#8C9EFB"/>
<path d="M8.00018 100.188H97.8757V102.752H8.00018V100.188Z" fill="#8C9EFB"/>
<path d="M50.3709 97.6239H87.605C88.1186 97.6239 88.5038 97.3675 88.7606 96.8546L99.0321 75.0575C99.1605 74.6729 99.1605 74.16 98.9037 73.7754C98.6469 73.3907 98.2617 73.1343 97.8765 73.1343H60.6424C60.1288 73.1343 59.7436 73.3907 59.4868 73.9036L49.2153 95.7006C49.0869 96.0853 49.0869 96.5982 49.3437 96.9828C49.4721 97.3675 49.8573 97.6239 50.3709 97.6239ZM86.7063 95.0595H52.2968L61.4127 75.8269H95.8222L86.7063 95.0595Z" fill="white"/>
<path d="M37.5311 102.753H87.6046C88.375 102.753 88.8886 102.24 88.8886 101.47V96.3416C88.8886 95.5723 88.375 95.0594 87.6046 95.0594H37.5311C36.7608 95.0594 36.2472 95.5723 36.2472 96.3416V101.47C36.2472 102.24 36.7608 102.753 37.5311 102.753ZM86.3207 100.188H38.8151V97.6238H86.3207V100.188Z" fill="white"/>
<path d="M101.729 106.599H104.297V57.8765H105.58V55.3121H101.729V106.599Z" fill="#8C9EFB"/>
<path d="M81.1857 70.6983H83.7535V55.3121H79.9017V57.8765H81.1857V70.6983Z" fill="#8C9EFB"/>
<path d="M106.864 78.3913H112V52.7477C112 43.2596 105.324 36.0793 96.5928 36.0793H88.8891C80.1584 36.0793 73.4819 43.2596 73.4819 52.7477V70.6982H76.0498V52.7477C76.0498 44.5417 81.4423 38.6437 88.8891 38.6437H96.5928C104.04 38.6437 109.432 44.5417 109.432 52.7477V75.8269H106.864V78.3913Z" fill="#8C9EFB"/>
<path d="M92.7413 33.5149C98.1339 33.5149 101.729 29.4119 101.729 23.2574C101.729 17.103 98.1339 13 92.7413 13C87.3488 13 83.7538 17.103 83.7538 23.2574C83.7538 29.4119 87.3488 33.5149 92.7413 33.5149ZM92.7413 15.5644C97.4919 15.5644 99.161 19.6673 99.161 23.2574C99.161 26.8475 97.4919 30.9505 92.7413 30.9505C87.9908 30.9505 86.3216 26.8475 86.3216 23.2574C86.3216 19.6673 87.9908 15.5644 92.7413 15.5644Z" fill="#8C9EFB"/>
<path d="M91.4569 47.6187H94.0248V50.183H91.4569V47.6187Z" fill="#8C9EFB"/>
<path d="M91.4572 55.3116H94.025V57.876H91.4572V55.3116Z" fill="#8C9EFB"/>
<path d="M91.4572 63.0051H94.025V65.5695H91.4572V63.0051Z" fill="#8C9EFB"/>
</svg>
