<svg width="104" height="90" viewBox="0 0 104 90" fill="none" xmlns="http://www.w3.org/2000/svg">
<path d="M2.81083 89.441H1.52588e-05V78.1977C1.52588e-05 69.3437 6.32434 62.7383 14.8973 62.7383H24.5946C28.1081 62.7383 31.2 63.8626 33.7297 65.8302L32.0433 68.0788C29.9352 66.3923 27.4054 65.5491 24.5946 65.5491H14.8973C7.87029 65.5491 2.81083 70.8896 2.81083 78.1977V89.441Z" fill="#8C9EFB"/>
<path d="M19.6757 59.9275C14.6162 59.9275 11.2432 55.9924 11.2432 50.0897C11.2432 44.187 14.6162 40.2518 19.6757 40.2518C24.7351 40.2518 28.1081 44.187 28.1081 50.0897C28.1081 55.9924 24.7351 59.9275 19.6757 59.9275ZM19.6757 43.0626C15.6 43.0626 14.0541 46.7167 14.0541 50.0897C14.0541 53.4626 15.6 57.1167 19.6757 57.1167C23.7513 57.1167 25.2973 53.4626 25.2973 50.0897C25.2973 46.7167 23.8919 43.0626 19.6757 43.0626Z" fill="#8C9EFB"/>
<path d="M21.081 75.387H18.2701V78.1978H21.081V75.387Z" fill="#8C9EFB"/>
<path d="M21.0811 82.4139H18.2703V85.2247H21.0811V82.4139Z" fill="#8C9EFB"/>
<path d="M9.83784 89.441H7.02703V82.414H5.62163V79.6031H9.83784V89.441Z" fill="#8C9EFB"/>
<path d="M104 89.441H101.189V78.1977C101.189 70.8896 96.1298 65.5491 89.1027 65.5491H79.4054C76.5946 65.5491 74.0649 66.3923 71.9568 68.0788L70.2703 65.8302C72.8 63.7221 76.0325 62.7383 79.4054 62.7383H89.1027C97.5352 62.7383 104 69.3437 104 78.1977V89.441Z" fill="#8C9EFB"/>
<path d="M84.3243 59.9275C79.2649 59.9275 75.8919 55.9924 75.8919 50.0897C75.8919 44.187 79.2649 40.2518 84.3243 40.2518C89.3838 40.2518 92.7568 44.187 92.7568 50.0897C92.7568 55.9924 89.3838 59.9275 84.3243 59.9275ZM84.3243 43.0626C80.2487 43.0626 78.7027 46.7167 78.7027 50.0897C78.7027 53.4626 80.2487 57.1167 84.3243 57.1167C88.4 57.1167 89.946 53.4626 89.946 50.0897C89.946 46.7167 88.4 43.0626 84.3243 43.0626Z" fill="#8C9EFB"/>
<path d="M85.7298 75.387H82.919V78.1978H85.7298V75.387Z" fill="#8C9EFB"/>
<path d="M85.7298 82.4139H82.919V85.2247H85.7298V82.4139Z" fill="#8C9EFB"/>
<path d="M96.9731 89.441H94.1623V79.6031H98.3785V82.414H96.9731V89.441Z" fill="#8C9EFB"/>
<path d="M71.6756 89.441H68.8648V78.1977C68.8648 70.8896 63.8053 65.5491 56.7783 65.5491H47.081C40.054 65.5491 34.9945 70.8896 34.9945 78.1977V89.441H32.1837V78.1977C32.1837 69.3437 38.508 62.7383 47.081 62.7383H56.7783C65.2107 62.7383 71.6756 69.3437 71.6756 78.1977V89.441Z" fill="#8C9EFB"/>
<path d="M52 59.9275C46.9405 59.9275 43.5676 55.9924 43.5676 50.0897C43.5676 44.187 46.9405 40.2518 52 40.2518C57.0595 40.2518 60.4324 44.187 60.4324 50.0897C60.4324 55.9924 57.0595 59.9275 52 59.9275ZM52 43.0626C47.9243 43.0626 46.3784 46.7167 46.3784 50.0897C46.3784 53.4626 47.9243 57.1167 52 57.1167C56.0757 57.1167 57.6216 53.4626 57.6216 50.0897C57.6216 46.7167 56.2162 43.0626 52 43.0626Z" fill="#8C9EFB"/>
<path d="M53.4055 75.387H50.5947V78.1978H53.4055V75.387Z" fill="#8C9EFB"/>
<path d="M53.4055 82.4139H50.5947V85.2247H53.4055V82.4139Z" fill="#8C9EFB"/>
<path d="M42.1622 89.441H39.3514V82.414H37.946V79.6031H42.1622V89.441Z" fill="#8C9EFB"/>
<path d="M64.6485 89.441H61.8377V79.6031H66.0539V82.414H64.6485V89.441Z" fill="#8C9EFB"/>
<path d="M52.0003 14.0536C48.0651 14.0536 44.9733 10.9617 44.9733 7.02654C44.9733 3.0914 48.0651 -0.000488281 52.0003 -0.000488281C55.9354 -0.000488281 59.0273 3.0914 59.0273 7.02654C59.0273 10.9617 55.9354 14.0536 52.0003 14.0536ZM52.0003 2.81032C49.6111 2.81032 47.7841 4.63735 47.7841 7.02654C47.7841 9.41573 49.6111 11.2428 52.0003 11.2428C54.3895 11.2428 56.2165 9.41573 56.2165 7.02654C56.2165 4.63735 54.3895 2.81032 52.0003 2.81032Z" fill="white"/>
<path d="M53.4057 12.9292H50.5949V36.6049H53.4057V12.9292Z" fill="white"/>
<path d="M84.3244 19.6751C80.3893 19.6751 77.2974 16.5833 77.2974 12.6481C77.2974 8.71299 80.3893 5.62109 84.3244 5.62109C88.2596 5.62109 91.3515 8.71299 91.3515 12.6481C91.3515 16.5833 88.2596 19.6751 84.3244 19.6751ZM84.3244 8.4319C81.9353 8.4319 80.1082 10.2589 80.1082 12.6481C80.1082 15.0373 81.9353 16.8643 84.3244 16.8643C86.7136 16.8643 88.5407 15.0373 88.5407 12.6481C88.5407 10.2589 86.7136 8.4319 84.3244 8.4319Z" fill="white"/>
<path d="M19.6754 19.6751C15.7403 19.6751 12.6484 16.5833 12.6484 12.6481C12.6484 8.71299 15.7403 5.62109 19.6754 5.62109C23.6106 5.62109 26.7025 8.71299 26.7025 12.6481C26.7025 16.5833 23.6106 19.6751 19.6754 19.6751ZM19.6754 8.4319C17.2863 8.4319 15.4592 10.2589 15.4592 12.6481C15.4592 15.0373 17.2863 16.8643 19.6754 16.8643C22.0646 16.8643 23.8917 15.0373 23.8917 12.6481C23.8917 10.2589 22.0646 8.4319 19.6754 8.4319Z" fill="white"/>
<path d="M39.3157 31.5671H36.5097V29.1743C36.5097 27.3473 34.9664 25.8013 33.1425 25.8013H24.5842C21.0767 25.8013 18.2707 22.9905 18.2707 19.6175V17.7563H21.0767V19.6175C21.0767 21.4446 22.62 22.9905 24.4439 22.9905H33.0022C36.3694 22.9905 39.1754 25.8013 39.1754 29.1743V31.5671H39.3157Z" fill="white"/>
<path d="M64.4505 31.5671H67.2565V29.0604C67.2565 27.1463 68.7998 25.5268 70.6237 25.5268H79.182C82.6895 25.5268 85.4955 22.5821 85.4955 19.0485V17.0986H82.6895V19.0485C82.6895 20.9626 81.1462 22.5821 79.3223 22.5821H70.764C67.3968 22.5821 64.5908 25.5268 64.5908 29.0604V31.5671H64.4505Z" fill="white"/>
</svg>
