<svg width="120" height="120" viewBox="0 0 120 120" fill="none" xmlns="http://www.w3.org/2000/svg">
<g clip-path="url(#clip0)">
<path d="M35.9483 94.8182L2.00431 77.4628V70.2397H5.23707V75.4132L35.9483 91.1157L66.6595 75.4132V70.2397H69.8922V77.4628L35.9483 94.8182Z" fill="white"/>
<path d="M35.9483 78.2893L2.00431 60.9339V53.7108H5.23707V58.8843L35.9483 74.5868L66.6595 58.8843V53.7108H69.8922V60.9339L35.9483 78.2893Z" fill="white"/>
<path d="M35.9483 61.7603L0 43.3802L35.9483 25L71.8966 43.3802L35.9483 61.7603ZM7.22522 43.3802L35.9483 58.0579L64.6552 43.3802L35.9483 28.7025L7.22522 43.3802Z" fill="white"/>
<path d="M120 33.4628H95.7543V36.7686H120V33.4628Z" fill="#8C9EFB"/>
<path d="M120 48.3389H77.9741V51.6447H120V48.3389Z" fill="#8C9EFB"/>
<path d="M90.9052 41.7273H77.9741V28.5042H90.9052V41.7273ZM81.2069 38.4215H87.6724V31.8099H81.2069V38.4215Z" fill="#8C9EFB"/>
<path d="M120 73.1323H95.7543V76.438H120V73.1323Z" fill="#8C9EFB"/>
<path d="M120 88.0083H77.9741V91.3141H120V88.0083Z" fill="#8C9EFB"/>
<path d="M90.9052 81.3967H77.9741V68.1736H90.9052V81.3967ZM81.2069 78.0909H87.6724V71.4794H81.2069V78.0909Z" fill="#8C9EFB"/>
</g>
<defs>
<clipPath id="clip0">
<rect width="120" height="69.8182" fill="white" transform="translate(0 25)"/>
</clipPath>
</defs>
</svg>
