<svg width="120" height="120" viewBox="0 0 120 120" fill="none" xmlns="http://www.w3.org/2000/svg">
<path d="M36.1081 77.2162C29.0811 77.2162 23.4595 71.5945 23.4595 64.5675C23.4595 57.5405 29.0811 51.9188 36.1081 51.9188C37.9352 51.9188 39.7622 52.3405 41.3082 53.0432L40.1838 55.5729C38.919 55.0107 37.5136 54.7296 36.1081 54.7296C30.6271 54.7296 26.2703 59.0864 26.2703 64.5675C26.2703 70.0486 30.6271 74.4054 36.1081 74.4054C41.5892 74.4054 45.946 70.0486 45.946 64.5675C45.946 63.8648 45.946 63.1621 45.8055 62.5999L48.6163 62.0378C48.7568 62.881 48.8974 63.7243 48.8974 64.5675C48.7568 71.5945 43.1352 77.2162 36.1081 77.2162Z" fill="white"/>
<path d="M36.2489 71.3129L29.2218 64.4264L31.1894 62.4589L35.8272 66.9562L46.2273 52.4805L48.4759 54.167L36.2489 71.3129Z" fill="white"/>
<path d="M93.729 71.5944H68.4317V74.4052H93.729V71.5944Z" fill="#8C9EFB"/>
<path d="M97.946 99.7029H96.5406V46.2973H97.946C104.13 46.2973 109.189 41.2379 109.189 35.0541C109.189 28.8703 104.13 23.8108 97.946 23.8108H33.2972V32.2433H30.4864V21H97.946C105.676 21 112 27.3243 112 35.0541V85.6488C112 93.3785 105.676 99.7029 97.946 99.7029ZM99.3514 49.1082V96.892C104.832 96.1893 109.189 91.411 109.189 85.7893V43.6271C106.941 46.5784 103.427 48.6865 99.3514 49.1082Z" fill="#8C9EFB"/>
<path d="M57.1893 84.2431H16.4325C11.7946 84.2431 8 80.4485 8 75.8106V43.4862C8 38.8484 11.7946 35.0538 16.4325 35.0538H57.1893C61.8271 35.0538 65.6217 38.8484 65.6217 43.4862V75.8106C65.6217 80.4485 61.8271 84.2431 57.1893 84.2431ZM16.4325 37.8646C13.3406 37.8646 10.8108 40.3943 10.8108 43.4862V75.8106C10.8108 78.9025 13.3406 81.4322 16.4325 81.4322H57.1893C60.2812 81.4322 62.8109 78.9025 62.8109 75.8106V43.4862C62.8109 40.3943 60.2812 37.8646 57.1893 37.8646H16.4325Z" fill="#8C9EFB"/>
<path d="M64.2165 44.892H9.40558V47.7028H64.2165V44.892Z" fill="#8C9EFB"/>
<path d="M90.9195 35.0538H71.2438V37.8646H90.9195V35.0538Z" fill="white"/>
<path d="M90.9191 44.891H71.2434V47.7018H90.9191V44.891Z" fill="white"/>
<path d="M90.9191 54.7294H71.2434V57.5402H90.9191V54.7294Z" fill="white"/>
</svg>
