<svg width="120" height="120" viewBox="0 0 120 120" fill="none" xmlns="http://www.w3.org/2000/svg">
<path d="M106.162 93.7812H29.5676C24.7068 93.7812 20.7298 89.8156 20.7298 84.9688V21.8125C20.7298 16.9656 24.7068 13 29.5676 13H106.162C111.023 13 115 16.9656 115 21.8125V84.9688C115 89.8156 111.023 93.7812 106.162 93.7812ZM29.5676 15.9375C26.3271 15.9375 23.6757 18.5812 23.6757 21.8125V84.9688C23.6757 88.2 26.3271 90.8438 29.5676 90.8438H106.162C109.403 90.8438 112.054 88.2 112.054 84.9688V21.8125C112.054 18.5812 109.403 15.9375 106.162 15.9375H29.5676Z" fill="#8C9EFB"/>
<path d="M113.527 27.6875H22.2027V30.625H113.527V27.6875Z" fill="#8C9EFB"/>
<path d="M91.4324 107H14.8378C9.97703 107 6 103.034 6 98.1875V35.0312C6 30.1844 9.97703 26.2188 14.8378 26.2188H17.7838V29.1562H14.8378C11.5973 29.1562 8.94595 31.8 8.94595 35.0312V98.1875C8.94595 101.419 11.5973 104.062 14.8378 104.062H91.4324C94.673 104.062 97.3243 101.419 97.3243 98.1875V96.7188H100.27V98.1875C100.27 103.034 96.2932 107 91.4324 107Z" fill="#8C9EFB"/>
<path d="M17.7837 42.375H7.47293V45.3125H17.7837V42.375Z" fill="#8C9EFB"/>
<path d="M35.4594 20.3438H32.5135V23.2812H35.4594V20.3438Z" fill="#8C9EFB"/>
<path d="M44.2973 20.3438H41.3513V23.2812H44.2973V20.3438Z" fill="#8C9EFB"/>
<path d="M53.1352 20.3438H50.1892V23.2812H53.1352V20.3438Z" fill="#8C9EFB"/>
<path d="M45.7702 77.625C36.7851 77.625 29.5675 70.4281 29.5675 61.4688C29.5675 52.5094 36.7851 45.3125 45.7702 45.3125C48.5689 45.3125 51.3675 46.0469 53.8716 47.5156L52.3986 50.0125C50.3365 48.8375 48.127 48.25 45.7702 48.25C38.4054 48.25 32.5135 54.125 32.5135 61.4688C32.5135 68.8125 38.4054 74.6875 45.7702 74.6875C53.1351 74.6875 59.027 68.8125 59.027 61.4688C59.027 60.1469 58.8797 58.825 58.4378 57.5031L61.2365 56.6219C61.6783 58.2375 61.9729 59.8531 61.9729 61.4688C61.9729 70.4281 54.7554 77.625 45.7702 77.625Z" fill="white"/>
<path d="M45.9176 69.5469L37.0797 61.0281L39.1419 58.825L45.623 65.1406L59.3216 45.9L61.6784 47.6625L45.9176 69.5469Z" fill="white"/>
<path d="M106.162 45.3125H70.8108V48.25H106.162V45.3125Z" fill="white"/>
<path d="M106.162 54.125H70.8108V57.0625H106.162V54.125Z" fill="white"/>
<path d="M106.162 65.875H70.8108V68.8125H106.162V65.875Z" fill="white"/>
<path d="M106.162 74.6875H70.8108V77.625H106.162V74.6875Z" fill="white"/>
</svg>
