<svg width="120" height="120" viewBox="0 0 120 120" fill="none" xmlns="http://www.w3.org/2000/svg">
<g clip-path="url(#clip0)">
<path d="M19.2433 111H16.4324V62.972H15.027V60.1469H19.2433V111Z" fill="white"/>
<path d="M44.5405 111H41.7297V60.1469H45.946V62.972H44.5405V111Z" fill="white"/>
<path d="M31.8919 82.7482H29.0811V111H31.8919V82.7482Z" fill="white"/>
<path d="M52.973 85.5734H47.3514V82.7482H50.1622V57.3216C50.1622 48.2811 44.2595 41.7832 36.1081 41.7832H24.8649C16.7135 41.7832 10.8108 48.2811 10.8108 57.3216V82.7482H13.6216V85.5734H8V57.3216C8 46.8685 15.3081 38.958 24.8649 38.958H36.1081C45.6649 38.958 52.973 46.8685 52.973 57.3216V85.5734Z" fill="white"/>
<path d="M30.4865 36.1328C24.5838 36.1328 20.6487 31.6126 20.6487 24.8321C20.6487 18.0517 24.5838 13.5314 30.4865 13.5314C36.3892 13.5314 40.3243 18.0517 40.3243 24.8321C40.3243 31.6126 36.3892 36.1328 30.4865 36.1328ZM30.4865 16.3566C25.2865 16.3566 23.4595 20.8769 23.4595 24.8321C23.4595 28.7874 25.2865 33.3077 30.4865 33.3077C35.6865 33.3077 37.5135 28.7874 37.5135 24.8321C37.5135 20.8769 35.6865 16.3566 30.4865 16.3566Z" fill="white"/>
<path d="M31.8919 51.6713H29.0811V54.4964H31.8919V51.6713Z" fill="white"/>
<path d="M31.8919 60.1468H29.0811V62.972H31.8919V60.1468Z" fill="white"/>
<path d="M31.8919 68.6223H29.0811V71.4475H31.8919V68.6223Z" fill="white"/>
<path d="M52.973 88.3986H50.1622V111H52.973V88.3986Z" fill="#8C9EFB"/>
<path d="M72.6487 111H69.8379L69.9784 71.4475H74.0541V74.2727H72.7892L72.6487 111Z" fill="#8C9EFB"/>
<path d="M62.8108 88.5399H60V111H62.8108V88.5399Z" fill="#8C9EFB"/>
<path d="M79.6758 91.2237H75.4596V88.3986H76.865V68.3398C76.865 61.4181 71.9461 55.909 65.7623 55.909H56.7677V53.0839H65.7623C73.6326 53.0839 79.6758 59.8643 79.6758 68.3398V91.2237Z" fill="#8C9EFB"/>
<path d="M60.7027 50.2587C56.2054 50.2587 52.973 46.4447 52.973 41.0769C52.973 35.7091 56.2054 31.8951 60.7027 31.8951C65.2 31.8951 68.4324 35.7091 68.4324 41.0769C68.4324 46.4447 65.2 50.2587 60.7027 50.2587ZM60.7027 34.7203C57.0486 34.7203 55.7838 38.1105 55.7838 41.0769C55.7838 44.0433 57.0486 47.4335 60.7027 47.4335C64.3567 47.4335 65.6216 43.9021 65.6216 41.0769C65.6216 38.2517 64.3567 34.7203 60.7027 34.7203Z" fill="#8C9EFB"/>
<path d="M93.5892 54.6377L76.4433 41.7832H71.2433V38.958H77.2865L93.8703 51.3888L110.032 43.337L111.157 45.7384L93.5892 54.6377Z" fill="#8C9EFB"/>
<path d="M89.6541 27.7986L65.6217 16.3566L49.0379 23.4196H43.1352V20.5944H48.4757L65.6217 13.3902L89.373 24.5496L109.751 10.8475L111.438 13.2489L89.6541 27.7986Z" fill="white"/>
<path d="M109.47 49.9762C109.33 49.9762 109.189 49.9762 109.049 49.9762C108.346 49.835 107.784 48.9874 108.065 48.2811L108.768 45.5972L106.097 44.8909C105.395 44.7497 104.832 43.9021 105.113 43.1958C105.254 42.4895 106.097 42.0657 106.8 42.207L110.876 43.3371C111.578 43.4783 112.141 44.3259 111.859 45.0322L110.735 49.1287C110.735 49.5524 110.173 49.9762 109.47 49.9762Z" fill="#8C9EFB"/>
<path d="M109.892 17.628H109.751C109.049 17.4867 108.486 16.7804 108.627 16.0741L109.049 13.2489L106.238 12.8252C105.395 12.6839 104.973 11.9776 104.973 11.2713C105.114 10.565 105.816 9.99998 106.519 10.1412L110.735 10.7063C111.578 10.7063 112.141 11.4126 112 12.2601L111.438 16.4979C111.297 17.2042 110.595 17.628 109.892 17.628Z" fill="white"/>
</g>
<defs>
<clipPath id="clip0">
<rect width="104" height="101" fill="white" transform="translate(8 10)"/>
</clipPath>
</defs>
</svg>
